<svg width="250" height="234" viewBox="0 0 250 234" fill="none" xmlns="http://www.w3.org/2000/svg">
  <path d="M178.192 0C166.293 34.562 133.724 57.768 97.1154 57.768H0C11.771 23.2273 44.265 0 80.8132 0H178.192Z" fill="#0ED2F7"/>
  <path d="M229.12 61.2679L208.835 120.788H141.028C153.155 85.1987 186.635 61.2679 224.29 61.2679H229.12Z" fill="url(#paint0_linear_87_2278)"/>
  <path d="M250 0L230.313 57.768H223.632C193.64 57.768 172.533 28.3439 182.193 0H250Z" fill="url(#paint1_linear_87_2278)"/>
  <path d="M157.102 61.2679L107.797 204.497C101.721 222.143 85.0917 233.989 66.4011 233.989H34.5122L83.8174 90.7665C89.8898 73.1178 106.523 61.2679 125.214 61.2679H157.102Z" fill="url(#paint2_linear_87_2278)"/>
  <defs>
    <linearGradient id="paint0_linear_87_2278" x1="0" y1="117.001" x2="250" y2="117.001" gradientUnits="userSpaceOnUse">
      <stop offset="0.51" stop-color="#0DD2F6"/>
      <stop offset="0.955" stop-color="#9FF7FA" stop-opacity="0.7"/>
    </linearGradient>
    <linearGradient id="paint1_linear_87_2278" x1="125" y1="0" x2="125" y2="233.989" gradientUnits="userSpaceOnUse">
      <stop stop-color="#9FF7FA" stop-opacity="0.7"/>
      <stop offset="0.135" stop-color="#0ED2F7"/>
    </linearGradient>
    <linearGradient id="paint2_linear_87_2278" x1="0" y1="116.995" x2="250" y2="116.995" gradientUnits="userSpaceOnUse">
      <stop stop-color="#9FF7FA" stop-opacity="0.3"/>
      <stop offset="0.57" stop-color="#0ED2F7"/>
    </linearGradient>
  </defs>
</svg>
