<svg width="222" height="50" viewBox="0 0 222 50" fill="none" xmlns="http://www.w3.org/2000/svg">
    <path d="M36.2593 5.6232H22.0103C21.8212 5.6232 21.6668 5.77821 21.6668 5.96811V49.2059C21.6668 49.3958 21.5124 49.5508 21.3233 49.5508H15.2833C15.0942 49.5508 14.9398 49.3958 14.9398 49.2059V5.96811C14.9398 5.77821 14.7855 5.6232 14.5964 5.6232H0.343487C0.154375 5.6232 0 5.46818 0 5.27829V0.34491C0 0.155015 0.154375 0 0.343487 0H36.2516C36.4407 0 36.5951 0.155015 36.5951 0.34491V5.27829C36.5951 5.46818 36.4407 5.6232 36.2516 5.6232H36.2593Z" fill="#0ED2F7"/>
    <path d="M40.9022 17.6679H46.9461C47.1352 17.6679 47.2895 17.823 47.2895 18.0128V22.6788C48.4204 21.055 49.9641 19.7684 51.9247 18.8228C53.7695 17.9276 55.6684 17.478 57.6174 17.4664C57.8103 17.4664 57.9724 17.6292 57.9724 17.8268V23.1633C57.9724 23.3493 57.8219 23.4888 57.6405 23.4888C55.8343 23.5004 54.1516 23.9383 52.5963 24.8103C50.9406 25.7365 49.6477 26.9883 48.7021 28.5656C47.7565 30.1467 47.2857 31.8131 47.2857 33.5726V49.2679C47.2857 49.4578 47.1313 49.6129 46.9422 49.6129H40.8983C40.7092 49.6129 40.5548 49.4578 40.5548 49.2679V18.009C40.5548 17.8191 40.7092 17.6641 40.8983 17.6641L40.9022 17.6679Z" fill="#0ED2F7"/>
    <path d="M67.7368 47.8883C65.3324 46.5125 63.4567 44.6058 62.1136 42.1682C60.7667 39.7306 60.0951 36.9558 60.0951 33.8438C60.0951 30.7319 60.7667 28.0114 62.1136 25.5544C63.4567 23.0935 65.3324 21.1791 67.7368 19.7994C70.1451 18.4236 72.8814 17.7338 75.9458 17.7338C77.7365 17.7338 79.5196 18.164 81.2911 19.0204C83.0626 19.8769 84.6063 21.1403 85.9301 22.8106V18.009C85.9301 17.8191 86.0845 17.6641 86.2736 17.6641H92.3136C92.5027 17.6641 92.6571 17.8191 92.6571 18.009V49.2679C92.6571 49.4578 92.5027 49.6129 92.3136 49.6129H86.2736C86.0845 49.6129 85.9301 49.4578 85.9301 49.2679V44.8732C84.6063 46.59 83.0741 47.865 81.3297 48.6982C79.5814 49.5353 77.7906 49.95 75.9496 49.95C72.8814 49.95 70.1489 49.2602 67.7406 47.8844L67.7368 47.8883ZM81.0788 43.0479C82.5647 42.1449 83.7573 40.8815 84.6526 39.2578C85.548 37.634 85.9957 35.828 85.9957 33.8438C85.9957 31.8596 85.548 30.0653 84.6526 28.4648C83.7534 26.8642 82.5647 25.6008 81.0788 24.6746C79.5929 23.7523 77.999 23.2873 76.3047 23.2873C73.4719 23.2873 71.1833 24.2561 69.4388 26.1977C67.6943 28.1393 66.8221 30.6893 66.8221 33.8438C66.8221 36.9984 67.6943 39.5523 69.4388 41.4939C71.1833 43.4316 73.4719 44.4043 76.3047 44.4043C78.0029 44.4043 79.5968 43.9548 81.0788 43.0518V43.0479Z" fill="#0ED2F7"/>
    <path d="M107.018 47.8883C104.61 46.5125 102.722 44.5942 101.352 42.1372C99.9862 39.6763 99.2992 36.8899 99.2992 33.7779C99.2992 30.666 99.9862 27.8796 101.352 25.4187C102.719 22.9579 104.606 21.0434 107.018 19.6638C109.422 18.288 112.159 17.5981 115.223 17.5981C116.971 17.5981 118.762 18.0167 120.603 18.8499C122.444 19.687 124.023 21.0046 125.346 22.8106V1.83694C125.346 1.64705 125.501 1.492 125.69 1.492H131.73C131.919 1.492 132.073 1.64705 132.073 1.83694V49.2718C132.073 49.4617 131.919 49.6167 131.73 49.6167H125.69C125.501 49.6167 125.346 49.4617 125.346 49.2718V44.7415C123.976 46.5009 122.375 47.8108 120.534 48.6672C118.693 49.5237 116.921 49.9539 115.223 49.9539C112.155 49.9539 109.422 49.264 107.018 47.8883ZM120.499 43.0479C121.985 42.0984 123.162 40.8157 124.034 39.1919C124.906 37.5681 125.346 35.7854 125.346 33.8438C125.346 31.9023 124.91 30.1196 124.034 28.4958C123.162 26.872 121.969 25.5854 120.46 24.6398C118.951 23.6903 117.346 23.2175 115.648 23.2175C112.769 23.2175 110.449 24.198 108.678 26.1628C106.91 28.1276 106.022 30.6854 106.022 33.8438C106.022 37.0023 106.906 39.5639 108.678 41.5249C110.449 43.4897 112.772 44.4702 115.648 44.4702C117.396 44.4702 119.009 43.9974 120.499 43.0479Z" fill="#0ED2F7"/>
    <path d="M149.765 42.1023C151.181 43.637 153.019 44.4043 155.284 44.4043C157.781 44.4043 159.815 43.6718 161.37 42.2069C162.926 40.742 163.678 38.7888 163.636 36.3512V18.0167C163.636 17.8268 163.79 17.6718 163.979 17.6718H170.093C170.282 17.6718 170.436 17.8268 170.436 18.0167V49.2757C170.436 49.4656 170.282 49.6206 170.093 49.6206H163.64V45.8305C162.601 47.0939 161.255 48.0976 159.607 48.8416C157.951 49.5857 156.303 49.9577 154.651 49.9577C152.007 49.9577 149.649 49.3842 147.573 48.2332C145.497 47.0822 143.868 45.4817 142.691 43.4277C141.514 41.3737 140.923 39.0408 140.923 36.421V18.0167C140.923 17.8268 141.077 17.6718 141.267 17.6718H147.307C147.496 17.6718 147.65 17.8268 147.65 18.0167V36.0838C147.65 38.5641 148.36 40.5754 149.773 42.1062L149.765 42.1023Z" fill="#0ED2F7"/>
    <path d="M184.511 1.83694V49.2021C184.511 49.392 184.357 49.547 184.168 49.547H178.128C177.939 49.547 177.784 49.392 177.784 49.2021V1.83694C177.784 1.64705 177.939 1.492 178.128 1.492H184.168C184.357 1.492 184.511 1.64705 184.511 1.83694Z" fill="#0ED2F7"/>
    <path d="M197.572 47.7875C195.144 46.435 193.241 44.54 191.875 42.1023C190.505 39.6647 189.822 36.8899 189.822 33.7779C189.822 30.666 190.505 27.8912 191.875 25.4536C193.241 23.016 195.144 21.1131 197.572 19.7335C199.999 18.3577 202.77 17.6679 205.885 17.6679C209 17.6679 211.5 18.2764 213.53 19.4932C215.561 20.7101 217.035 21.9774 217.953 23.2834C218.876 24.5933 219.451 25.6086 219.69 26.3294C220.682 28.6314 221.176 31.1814 221.176 33.9756C221.176 34.6073 221.153 35.115 221.103 35.4986C221.056 35.8823 221.029 36.1652 221.029 36.3435H196.545C196.97 38.6455 198.066 40.5405 199.837 42.0287C201.605 43.5168 203.623 44.2609 205.889 44.2609C208.482 44.2609 210.478 43.7765 211.871 42.8037C213.148 41.9124 214.082 41.0327 214.661 40.1608C214.754 40.0251 214.916 39.9786 215.067 40.0483L219.906 42.269C220.022 42.3232 220.072 42.4627 220.018 42.5751C219.057 44.5167 217.405 46.1947 215.059 47.6131C212.627 49.0819 209.571 49.8143 205.893 49.8143C202.778 49.8143 200.007 49.1361 197.579 47.7836L197.572 47.7875ZM212.045 25.3839C210.628 23.9422 208.579 23.2175 205.889 23.2175C203.531 23.2175 201.489 23.9538 199.768 25.4187C198.155 26.7945 197.109 28.5539 196.638 30.7009C196.591 30.9179 196.765 31.1388 196.985 31.1388H214.252C214.468 31.1388 214.638 30.9334 214.6 30.7203C214.229 28.5229 213.376 26.7441 212.045 25.3877V25.3839Z" fill="#0ED2F7"/>
</svg>
