<svg width="255" height="369" viewBox="0 0 255 369" fill="none" xmlns="http://www.w3.org/2000/svg">
    <path d="M245.938 142.812C245.938 147.366 245.664 151.981 245.081 156.442C241.774 181.76 229.088 204.927 209.358 221.692C204.885 225.506 200.138 228.92 195.202 231.877C195.171 231.908 195.14 231.908 195.14 231.939C193.454 232.954 191.771 233.907 190.023 234.799C189.992 234.83 189.961 234.83 189.93 234.861C189.594 235.016 189.255 235.198 188.919 235.384H188.888C188.552 235.539 188.213 235.721 187.877 235.907C187.846 235.938 187.815 235.938 187.753 235.969C177.889 240.891 167.318 244.216 156.534 245.751C151.876 246.429 147.16 246.766 142.44 246.766C137.415 246.766 132.421 246.367 127.488 245.627C117.96 244.181 108.647 241.41 99.8241 237.411C89.284 232.644 79.5119 226.122 71.025 218.123C51.203 199.358 39.8988 174.067 38.9763 146.506C58.7057 118.94 85.6677 101.191 109.627 87.4057C109.874 87.2507 110.117 87.1306 110.364 87.0066C105.953 89.5605 101.816 92.6375 98.0487 96.1758C85.1505 108.298 78.0415 124.877 78.0415 142.816C78.0415 160.755 85.0888 177.427 97.8635 189.515C101.02 192.499 104.482 195.177 108.157 197.452C111.252 199.389 114.498 201.052 117.84 202.466C125.651 205.725 134.046 207.481 142.444 207.481C170.201 207.481 201.697 186.469 206.263 151.338C206.568 149.063 206.753 146.754 206.815 144.417C207.919 154.198 216.19 161.829 226.24 161.829C237.054 161.829 245.818 153.032 245.818 142.169C245.818 140.816 245.664 139.491 245.421 138.232C245.757 139.677 245.942 141.247 245.942 142.816L245.938 142.812Z" fill="url(#paint0_linear_78_941)"/>
    <path d="M93.1241 51.6862C85.2509 55.9724 77.8794 61.2739 71.2875 67.4823C51.6275 86.0028 40.277 110.817 39.042 137.813C38.1003 127.834 29.7562 120.025 19.5596 120.025C14.0406 120.025 9.06965 122.308 5.51512 125.993C29.9491 90.696 63.5416 68.6411 90.2025 53.2984C91.1751 52.7442 92.1515 52.2055 93.1241 51.6862Z" fill="url(#paint1_linear_78_941)"/>
    <path d="M160.521 80.7013C154.759 79.0116 148.769 78.1552 142.428 78.1552C131.63 78.1552 120.788 81.1276 111.144 86.557L110.383 86.9949C110.326 87.0182 110.279 87.0415 110.233 87.0763C110.198 87.088 110.163 87.0996 110.14 87.1228C109.967 87.2158 109.805 87.3088 109.658 87.4019C101.418 92.1337 92.8231 97.3423 84.2937 103.264C81.9665 104.872 79.6393 106.539 77.3352 108.263C75.0195 109.976 72.727 111.759 70.4577 113.607C69.6974 114.22 68.9487 114.832 68.1883 115.471C65.1819 117.983 62.2062 120.61 59.3039 123.362C57.8412 124.737 56.4132 126.14 54.9814 127.586C54.2674 128.303 53.565 129.031 52.8741 129.772C51.4577 131.24 50.0838 132.744 48.7253 134.283C47.3667 135.821 46.0275 137.395 44.7153 139.014C43.4031 140.623 42.1102 142.266 40.8559 143.956C40.2229 144.8 39.6016 145.645 38.9763 146.513C38.9532 145.277 38.9185 144.037 38.9185 142.812V142.487C39.069 141.561 39.1269 140.634 39.1269 139.662C39.1269 139.049 39.0921 138.425 39.0458 137.809C40.277 110.813 51.6275 85.9951 71.2875 67.4784C77.8794 61.2662 85.2547 55.9646 93.1241 51.6707C93.3209 51.5544 93.5178 51.4614 93.7107 51.3684C102.526 46.683 111.7 43.2921 121.066 41.2536C126.69 53.8099 133.247 62.2311 140.035 68.238C146.836 74.2333 153.887 77.818 160.525 80.6897L160.521 80.7013Z" fill="url(#paint2_linear_78_941)"/>
    <path d="M162.922 68.9511C162.922 75.6206 166.233 81.519 171.301 85.0766C167.792 83.2513 164.207 81.798 160.521 80.709C153.879 77.8412 146.836 74.2526 140.032 68.2535C133.247 62.2544 126.686 53.8254 121.066 41.273C121.051 41.2575 121.051 41.242 121.051 41.2226C119.198 37.0992 117.446 32.5185 115.821 27.4456C115.513 26.4496 115.285 25.442 115.123 24.446C117.199 32.7936 124.621 39.0214 133.517 39.281L133.532 39.2965H133.563C133.563 39.2965 133.579 39.2965 133.579 39.281H133.594C133.756 39.2965 133.934 39.2965 134.096 39.2965H134.455C134.455 39.2965 134.486 39.2965 134.505 39.281C135.234 39.281 135.968 39.2152 136.697 39.1183C136.971 39.0873 137.218 39.0524 137.477 39.0059H137.492C146.681 37.3937 153.663 29.3368 153.663 19.656C153.663 18.5322 153.567 17.4393 153.389 16.3619C159.379 34.6848 165.373 39.7732 174.643 44.0129H174.658C174.836 44.1098 175.033 44.1912 175.21 44.2726H175.226C176.932 45.0399 178.734 45.7723 180.664 46.5707C183.828 47.8573 187.093 49.1943 190.582 50.8762C190.744 50.9576 190.891 51.0235 191.038 51.1049C191.134 51.1553 191.25 51.2173 191.346 51.2676C191.493 51.349 191.655 51.4304 191.802 51.5118C191.949 51.6087 192.095 51.6901 192.242 51.7908C192.389 51.8722 192.516 51.9536 192.647 52.035C192.678 52.0505 192.697 52.0505 192.713 52.066C192.859 52.1629 193.021 52.2597 193.168 52.376C193.573 52.6357 193.948 52.9302 194.322 53.2247C194.434 53.3216 194.565 53.4185 194.696 53.5348C194.712 53.5503 194.747 53.5658 194.762 53.6006C195.233 53.9921 195.688 54.399 196.109 54.8408C192.585 51.4188 187.78 49.3144 182.485 49.3144C171.671 49.3144 162.922 58.1 162.922 68.9588V68.9511Z" fill="url(#paint3_linear_78_941)"/>
    <path d="M39.123 139.665C39.123 140.638 39.0651 141.564 38.9146 142.491C38.4553 145.742 37.1856 148.738 35.3292 151.272C34.8931 151.873 34.4184 152.454 33.9128 153.008C30.3389 156.884 25.2484 159.314 19.5557 159.314C8.74546 159.314 0 150.509 0 139.665C0 134.356 2.08409 129.527 5.51898 125.989C9.06965 122.311 14.0367 120.029 19.5557 120.029C29.7523 120.029 38.0964 127.838 39.042 137.813C39.0883 138.425 39.123 139.049 39.123 139.665Z" fill="white"/>
    <path d="M153.667 19.6483C153.667 29.3329 146.685 37.386 137.496 38.9981H137.48C137.222 39.0485 136.979 39.0795 136.701 39.1105C135.971 39.2074 135.238 39.2733 134.509 39.2733C134.493 39.2888 134.459 39.2888 134.459 39.2888H134.1C133.938 39.2888 133.76 39.2888 133.598 39.2733H133.582C133.582 39.2733 133.582 39.2888 133.567 39.2888H133.536L133.521 39.2733C124.625 39.0136 117.203 32.7859 115.127 24.4383V24.3724C114.737 22.8571 114.544 21.2759 114.544 19.6444C114.544 8.78553 123.297 0 134.107 0C143.783 0 151.838 7.06098 153.397 16.3348V16.3503C153.574 17.4277 153.671 18.5205 153.671 19.6444L153.667 19.6483Z" fill="white"/>
    <path d="M196.742 55.4996C196.595 55.3523 196.449 55.1896 196.321 55.0578C196.306 55.0423 196.29 55.0268 196.271 55.0074L196.221 54.957L196.109 54.8253C192.585 51.4033 187.78 49.2989 182.485 49.2989C171.671 49.2989 162.922 58.0845 162.922 68.9433C162.922 75.6129 166.233 81.5113 171.301 85.0689H171.316C171.818 85.313 172.289 85.5727 172.794 85.8362C172.972 85.9486 173.153 86.0493 173.346 86.1307C173.412 86.1811 173.477 86.2121 173.539 86.2431C173.018 85.9835 172.501 85.7393 171.964 85.5107C175.002 87.4522 178.607 88.5916 182.485 88.5916C193.28 88.5916 202.049 79.7867 202.049 68.9472C202.049 63.7309 200.019 59.0029 196.738 55.4957L196.742 55.4996ZM199.745 60.0493C199.714 59.9834 199.679 59.902 199.648 59.8361C199.779 60.0803 199.907 60.34 200.007 60.6035C199.926 60.4252 199.845 60.2276 199.748 60.0493H199.745ZM201.238 72.8304C201.223 72.9272 201.188 73.0086 201.173 73.1094C201.188 72.997 201.223 72.8807 201.238 72.7684C201.319 72.4583 201.385 72.1328 201.431 71.8228C201.381 72.1483 201.319 72.4893 201.238 72.8342V72.8304ZM201.613 66.8312L201.663 67.4668L201.632 67.2072C201.632 67.0754 201.632 66.963 201.616 66.8312H201.613ZM201.678 67.7265V68.052C201.678 67.9202 201.678 67.773 201.663 67.6451C201.678 67.6761 201.678 67.6955 201.678 67.7265ZM201.678 68.1993C201.678 68.1993 201.694 68.2148 201.694 68.2303V68.3271C201.678 68.2768 201.678 68.2458 201.678 68.1954V68.1993Z" fill="white"/>
    <path d="M245.818 142.165C245.818 153.024 237.058 161.825 226.24 161.825C216.19 161.825 207.919 154.194 206.815 144.413C206.722 143.673 206.661 142.936 206.661 142.165C206.661 131.306 215.422 122.536 226.24 122.536C235.583 122.536 243.399 129.09 245.328 137.887C245.359 137.98 245.39 138.104 245.421 138.224C245.668 139.483 245.818 140.809 245.818 142.161V142.165Z" fill="white"/>
    <path d="M187.757 235.965C178.109 241.104 170.814 247.777 166.098 255.807C162.729 261.558 161.687 266.329 161.44 267.651L161.104 267.62C161.135 267.251 161.135 266.852 161.135 266.48C161.135 265.864 161.104 265.248 161.042 264.635C160.124 254.637 151.76 246.824 141.587 246.824C132.977 246.824 125.655 252.424 123.05 260.144V260.175C122.436 261.958 122.101 263.837 122.039 265.806C121.456 263.531 120.264 259.714 117.72 255.346C113.645 248.27 107.639 242.24 99.8279 237.411C108.651 241.41 117.967 244.177 127.492 245.627C132.425 246.367 137.419 246.766 142.444 246.766C147.16 246.766 151.88 246.429 156.538 245.751C167.322 244.212 177.893 240.891 187.757 235.969V235.965Z" fill="url(#paint4_linear_78_941)"/>
    <path d="M161.139 266.476C161.139 266.864 161.123 267.247 161.104 267.635C160.514 277.944 151.996 286.125 141.575 286.125C131.155 286.125 122.012 277.331 122.012 266.48C122.012 266.259 122.02 266.046 122.035 265.821V265.806C122.093 263.841 122.448 261.95 123.054 260.171V260.163C125.667 252.412 132.973 246.832 141.579 246.832C151.768 246.832 160.135 254.649 161.058 264.643C161.116 265.244 161.143 265.856 161.143 266.48L161.139 266.476Z" fill="white"/>
    <path d="M128.442 175.618C126.064 175.618 123.702 174.637 122.004 172.734L97.2537 145.014C94.0658 141.444 94.3668 135.957 97.9175 132.76C101.472 129.558 106.937 129.861 110.121 133.426L129.484 155.113L179.286 116.122C183.049 113.177 188.479 113.851 191.416 117.63C194.349 121.408 193.678 126.861 189.915 129.81L133.752 173.781C132.178 175.013 130.306 175.614 128.442 175.614V175.618Z" fill="white"/>
    <path d="M38.9725 146.517L35.333 151.272C37.1894 148.738 38.4553 145.742 38.9185 142.491V142.816C38.9185 144.041 38.9532 145.281 38.9763 146.517H38.9725Z" fill="white"/>
    <path d="M70.0833 323.999H55.8343C55.6452 323.999 55.4908 324.154 55.4908 324.344V367.582C55.4908 367.771 55.3365 367.926 55.1473 367.926H49.1073C48.9182 367.926 48.7638 367.771 48.7638 367.582V324.344C48.7638 324.154 48.6095 323.999 48.4204 323.999H34.1675C33.9784 323.999 33.824 323.844 33.824 323.654V318.721C33.824 318.531 33.9784 318.376 34.1675 318.376H70.0756C70.2647 318.376 70.4191 318.531 70.4191 318.721V323.654C70.4191 323.844 70.2647 323.999 70.0756 323.999H70.0833Z" fill="white"/>
    <path d="M74.7262 336.044H80.7701C80.9592 336.044 81.1136 336.199 81.1136 336.388V341.054C82.2444 339.431 83.7881 338.144 85.7487 337.198C87.5935 336.303 89.4924 335.854 91.4414 335.842C91.6344 335.842 91.7965 336.005 91.7965 336.202V341.539C91.7965 341.725 91.6459 341.864 91.4645 341.864C89.6583 341.876 87.9756 342.314 86.4203 343.186C84.7646 344.112 83.4717 345.364 82.5261 346.941C81.5806 348.522 81.1097 350.189 81.1097 351.948V367.644C81.1097 367.833 80.9553 367.988 80.7662 367.988H74.7224C74.5332 367.988 74.3789 367.833 74.3789 367.644V336.385C74.3789 336.195 74.5332 336.04 74.7224 336.04L74.7262 336.044Z" fill="white"/>
    <path d="M101.561 366.264C99.1564 364.888 97.2807 362.981 95.9376 360.544C94.5907 358.106 93.9191 355.331 93.9191 352.219C93.9191 349.108 94.5907 346.387 95.9376 343.93C97.2807 341.469 99.1564 339.555 101.561 338.175C103.969 336.799 106.705 336.109 109.77 336.109C111.561 336.109 113.344 336.54 115.115 337.396C116.887 338.253 118.43 339.516 119.754 341.186V336.385C119.754 336.195 119.909 336.04 120.098 336.04H126.138C126.327 336.04 126.481 336.195 126.481 336.385V367.644C126.481 367.833 126.327 367.988 126.138 367.988H120.098C119.909 367.988 119.754 367.833 119.754 367.644V363.249C118.43 364.966 116.898 366.241 115.154 367.074C113.405 367.911 111.615 368.326 109.774 368.326C106.705 368.326 103.973 367.636 101.565 366.26L101.561 366.264ZM114.903 361.424C116.389 360.521 117.581 359.257 118.477 357.633C119.372 356.01 119.82 354.204 119.82 352.219C119.82 350.235 119.372 348.441 118.477 346.84C117.577 345.24 116.389 343.976 114.903 343.05C113.417 342.128 111.823 341.663 110.129 341.663C107.296 341.663 105.007 342.632 103.263 344.573C101.518 346.515 100.646 349.065 100.646 352.219C100.646 355.374 101.518 357.928 103.263 359.869C105.007 361.807 107.296 362.78 110.129 362.78C111.827 362.78 113.421 362.33 114.903 361.427V361.424Z" fill="white"/>
    <path d="M140.842 366.264C138.434 364.888 136.547 362.97 135.176 360.513C133.81 358.052 133.123 355.266 133.123 352.154C133.123 349.042 133.81 346.255 135.176 343.794C136.543 341.333 138.43 339.419 140.842 338.039C143.246 336.664 145.983 335.974 149.047 335.974C150.796 335.974 152.586 336.392 154.427 337.226C156.268 338.063 157.847 339.38 159.17 341.186V320.213C159.17 320.023 159.325 319.868 159.514 319.868H165.554C165.743 319.868 165.897 320.023 165.897 320.213V367.647C165.897 367.837 165.743 367.992 165.554 367.992H159.514C159.325 367.992 159.17 367.837 159.17 367.647V363.117C157.8 364.876 156.199 366.186 154.358 367.043C152.517 367.899 150.745 368.329 149.047 368.329C145.979 368.329 143.246 367.64 140.842 366.264ZM154.323 361.424C155.809 360.474 156.986 359.191 157.858 357.568C158.73 355.944 159.17 354.161 159.17 352.219C159.17 350.278 158.734 348.495 157.858 346.871C156.986 345.248 155.793 343.961 154.284 343.015C152.775 342.066 151.17 341.593 149.472 341.593C146.593 341.593 144.273 342.574 142.502 344.538C140.734 346.503 139.846 349.061 139.846 352.219C139.846 355.378 140.73 357.94 142.502 359.901C144.273 361.865 146.596 362.846 149.472 362.846C151.22 362.846 152.833 362.373 154.323 361.424Z" fill="white"/>
    <path d="M183.589 360.478C185.005 362.013 186.843 362.78 189.108 362.78C191.605 362.78 193.639 362.047 195.194 360.583C196.75 359.118 197.502 357.164 197.46 354.727V336.392C197.46 336.202 197.614 336.047 197.803 336.047H203.917C204.106 336.047 204.26 336.202 204.26 336.392V367.651C204.26 367.841 204.106 367.996 203.917 367.996H197.464V364.206C196.426 365.469 195.079 366.473 193.431 367.217C191.775 367.961 190.127 368.333 188.475 368.333C185.831 368.333 183.473 367.76 181.397 366.609C179.321 365.458 177.692 363.857 176.515 361.803C175.338 359.749 174.747 357.416 174.747 354.797V336.392C174.747 336.202 174.901 336.047 175.091 336.047H181.131C181.32 336.047 181.474 336.202 181.474 336.392V354.459C181.474 356.94 182.184 358.951 183.597 360.482L183.589 360.478Z" fill="white"/>
    <path d="M218.335 320.213V367.578C218.335 367.768 218.181 367.923 217.992 367.923H211.952C211.763 367.923 211.608 367.768 211.608 367.578V320.213C211.608 320.023 211.763 319.868 211.952 319.868H217.992C218.181 319.868 218.335 320.023 218.335 320.213Z" fill="white"/>
    <path d="M231.396 366.163C228.968 364.811 227.065 362.916 225.699 360.478C224.329 358.04 223.646 355.266 223.646 352.154C223.646 349.042 224.329 346.267 225.699 343.829C227.065 341.392 228.968 339.489 231.396 338.109C233.823 336.733 236.594 336.044 239.709 336.044C242.824 336.044 245.324 336.652 247.354 337.869C249.385 339.086 250.859 340.353 251.777 341.659C252.7 342.969 253.275 343.984 253.514 344.705C254.506 347.007 255 349.557 255 352.351C255 352.983 254.977 353.491 254.927 353.874C254.88 354.258 254.853 354.541 254.853 354.719H230.369C230.794 357.021 231.89 358.916 233.661 360.404C235.429 361.892 237.447 362.637 239.713 362.637C242.306 362.637 244.302 362.152 245.695 361.179C246.972 360.288 247.906 359.408 248.485 358.536C248.578 358.401 248.74 358.354 248.891 358.424L253.73 360.645C253.846 360.699 253.896 360.838 253.842 360.951C252.881 362.892 251.229 364.57 248.883 365.989C246.451 367.458 243.395 368.19 239.717 368.19C236.602 368.19 233.831 367.512 231.403 366.159L231.396 366.163ZM245.869 343.759C244.452 342.318 242.403 341.593 239.713 341.593C237.355 341.593 235.313 342.329 233.592 343.794C231.979 345.17 230.933 346.93 230.462 349.077C230.415 349.294 230.589 349.514 230.809 349.514H248.076C248.292 349.514 248.462 349.309 248.424 349.096C248.053 346.899 247.2 345.12 245.869 343.763V343.759Z" fill="white"/>
    <defs>
        <linearGradient id="paint0_linear_78_941" x1="0.00951031" y1="184.158" x2="254.995" y2="184.158" gradientUnits="userSpaceOnUse">
            <stop stop-color="white" stop-opacity="0.5"/>
            <stop offset="0.355" stop-color="white" stop-opacity="0.9"/>
        </linearGradient>
        <linearGradient id="paint1_linear_78_941" x1="0" y1="184.167" x2="255" y2="184.167" gradientUnits="userSpaceOnUse">
            <stop stop-color="white"/>
            <stop offset="0.35" stop-color="white" stop-opacity="0.5"/>
        </linearGradient>
        <linearGradient id="paint2_linear_78_941" x1="-0.00809293" y1="184.201" x2="254.992" y2="184.201" gradientUnits="userSpaceOnUse">
            <stop offset="0.295" stop-color="white"/>
            <stop offset="0.83" stop-color="white" stop-opacity="0.5"/>
        </linearGradient>
        <linearGradient id="paint3_linear_78_941" x1="0" y1="184.136" x2="255" y2="184.136" gradientUnits="userSpaceOnUse">
            <stop stop-color="white" stop-opacity="0.5"/>
            <stop offset="0.745" stop-color="white"/>
        </linearGradient>
        <linearGradient id="paint4_linear_78_941" x1="0" y1="184.167" x2="255" y2="184.167" gradientUnits="userSpaceOnUse">
            <stop offset="0.365" stop-color="white"/>
            <stop offset="1" stop-color="white" stop-opacity="0.2"/>
        </linearGradient>
    </defs>
</svg>
