<svg width="250" height="326" viewBox="0 0 250 326" fill="none" xmlns="http://www.w3.org/2000/svg">
    <path d="M178.192 0C166.293 34.562 133.724 57.7679 97.1154 57.7679H0C11.771 23.2273 44.265 0 80.8132 0H178.192Z" fill="url(#paint0_linear_78_943)"/>
    <path d="M229.12 61.2678L208.835 120.787H141.028C153.155 85.1986 186.635 61.2678 224.29 61.2678H229.12Z" fill="url(#paint1_linear_78_943)"/>
    <path d="M250 0L230.313 57.7679H223.632C193.64 57.7679 172.533 28.3439 182.193 0H250Z" fill="url(#paint2_linear_78_943)"/>
    <path d="M157.102 61.2678L107.797 204.497C101.721 222.143 85.0917 233.989 66.4011 233.989H34.5122L83.8174 90.7665C89.8898 73.1178 106.523 61.2678 125.214 61.2678H157.102Z" fill="url(#paint3_linear_78_943)"/>
    <path d="M35.1315 281.04C34.9393 281.04 34.7863 281.197 34.7863 281.385V324.993C34.7863 325.185 34.6297 325.338 34.441 325.338H28.3152C28.123 325.338 27.97 325.182 27.97 324.993V281.385C27.97 281.193 27.8134 281.04 27.6247 281.04H13.1663C12.9741 281.04 12.8211 280.884 12.8211 280.696V275.721C12.8211 275.529 12.9777 275.377 13.1663 275.377H49.5971C49.7893 275.377 49.9423 275.533 49.9423 275.721V280.696C49.9423 280.888 49.7857 281.04 49.5971 281.04H35.1315Z" fill="white"/>
    <path d="M54.2991 293.189H60.4284C60.6206 293.189 60.7737 293.345 60.7737 293.533V298.238C61.9198 296.6 63.486 295.303 65.4757 294.347C67.3479 293.445 69.2736 292.99 71.2526 292.979C71.4484 292.979 71.6157 293.146 71.6157 293.342V298.725C71.6157 298.909 71.4626 299.052 71.2775 299.055C69.4444 299.066 67.7359 299.51 66.1591 300.388C64.479 301.322 63.1656 302.583 62.2117 304.175C61.2542 305.771 60.7772 307.451 60.7772 309.228V325.061C60.7772 325.253 60.6206 325.406 60.432 325.406H54.3026C54.1104 325.406 53.9574 325.249 53.9574 325.061V293.533C53.9574 293.342 54.114 293.189 54.3026 293.189H54.2991Z" fill="white"/>
    <path d="M81.5216 323.668C79.0798 322.282 77.1791 320.357 75.8158 317.901C74.449 315.442 73.7691 312.646 73.7691 309.505C73.7691 306.364 74.449 303.625 75.8158 301.144C77.1791 298.664 79.0834 296.731 81.5216 295.342C83.9633 293.953 86.7397 293.26 89.8506 293.26C91.6695 293.26 93.4777 293.693 95.2717 294.557C97.0692 295.42 98.6353 296.696 99.9772 298.38V293.537C99.9772 293.345 100.134 293.192 100.322 293.192H106.448C106.64 293.192 106.794 293.349 106.794 293.537V325.065C106.794 325.256 106.637 325.409 106.448 325.409H100.322C100.13 325.409 99.9772 325.253 99.9772 325.065V320.634C98.6353 322.364 97.0798 323.65 95.3072 324.492C93.5346 325.335 91.7158 325.757 89.8506 325.757C86.7397 325.757 83.9633 325.061 81.5216 323.675V323.668ZM95.0581 318.79C96.5673 317.88 97.7739 316.604 98.6851 314.966C99.5928 313.328 100.048 311.509 100.048 309.505C100.048 307.501 99.5928 305.696 98.6851 304.079C97.7739 302.463 96.5673 301.191 95.0581 300.256C93.5525 299.325 91.9329 298.856 90.2137 298.856C87.3377 298.856 85.0169 299.833 83.2479 301.791C81.4789 303.749 80.5926 306.318 80.5926 309.505C80.5926 312.692 81.4789 315.261 83.2479 317.219C85.0169 319.173 87.3412 320.154 90.2137 320.154C91.9365 320.154 93.5525 319.699 95.0581 318.79Z" fill="white"/>
    <path d="M121.373 323.668C118.931 322.282 117.013 320.346 115.628 317.866C114.24 315.386 113.546 312.575 113.546 309.434C113.546 306.293 114.24 303.486 115.628 301.006C117.016 298.526 118.931 296.593 121.373 295.203C123.815 293.814 126.588 293.121 129.698 293.121C131.471 293.121 133.29 293.544 135.155 294.383C137.02 295.228 138.625 296.557 139.967 298.376V277.221C139.967 277.029 140.124 276.876 140.313 276.876H146.438C146.631 276.876 146.784 277.032 146.784 277.221V325.061C146.784 325.253 146.627 325.406 146.438 325.406H140.313C140.12 325.406 139.967 325.249 139.967 325.061V320.492C138.576 322.268 136.953 323.586 135.087 324.453C133.222 325.317 131.425 325.75 129.698 325.75C126.588 325.75 123.811 325.054 121.373 323.668ZM135.052 318.79C136.557 317.834 137.753 316.537 138.64 314.899C139.526 313.261 139.971 311.463 139.971 309.505C139.971 307.547 139.526 305.749 138.64 304.111C137.753 302.473 136.547 301.176 135.016 300.221C133.482 299.265 131.855 298.785 130.133 298.785C127.214 298.785 124.858 299.776 123.06 301.756C121.266 303.735 120.369 306.318 120.369 309.505C120.369 312.692 121.266 315.275 123.06 317.255C124.858 319.234 127.214 320.225 130.133 320.225C131.905 320.225 133.546 319.749 135.052 318.793V318.79Z" fill="white"/>
    <path d="M164.741 317.834C166.175 319.383 168.044 320.154 170.34 320.154C172.874 320.154 174.935 319.415 176.516 317.937C178.092 316.459 178.858 314.49 178.815 312.031V293.537C178.815 293.345 178.972 293.192 179.16 293.192H185.361C185.553 293.192 185.706 293.349 185.706 293.537V325.065C185.706 325.256 185.549 325.409 185.361 325.409H178.815V321.586C177.761 322.862 176.395 323.874 174.722 324.624C173.042 325.374 171.372 325.75 169.696 325.75C167.012 325.75 164.62 325.171 162.513 324.009C160.406 322.847 158.754 321.234 157.558 319.163C156.362 317.091 155.764 314.739 155.764 312.095V293.533C155.764 293.342 155.921 293.189 156.109 293.189H162.235C162.427 293.189 162.58 293.345 162.58 293.533V311.754C162.58 314.256 163.299 316.281 164.734 317.83L164.741 317.834Z" fill="white"/>
    <path d="M199.994 277.221V324.993C199.994 325.185 199.837 325.338 199.648 325.338H193.523C193.33 325.338 193.177 325.182 193.177 324.993V277.221C193.177 277.029 193.334 276.876 193.523 276.876H199.648C199.841 276.876 199.994 277.032 199.994 277.221Z" fill="white"/>
    <path d="M213.245 323.565C210.782 322.201 208.853 320.289 207.465 317.83C206.073 315.371 205.383 312.575 205.383 309.434C205.383 306.293 206.073 303.497 207.465 301.038C208.853 298.579 210.779 296.66 213.245 295.271C215.708 293.882 218.52 293.189 221.681 293.189C224.842 293.189 227.38 293.803 229.437 295.029C231.495 296.259 232.993 297.534 233.922 298.853C234.858 300.171 235.442 301.198 235.684 301.923C236.688 304.243 237.193 306.815 237.193 309.637C237.193 310.276 237.168 310.788 237.122 311.172C237.072 311.559 237.051 311.843 237.051 312.024H212.21C212.64 314.345 213.751 316.256 215.548 317.759C217.342 319.262 219.389 320.012 221.685 320.012C224.315 320.012 226.34 319.522 227.754 318.544C229.049 317.645 229.996 316.757 230.587 315.876C230.679 315.737 230.847 315.691 230.996 315.762L235.905 318.001C236.022 318.054 236.076 318.196 236.019 318.31C235.043 320.268 233.367 321.963 230.989 323.391C228.522 324.873 225.422 325.612 221.688 325.612C218.528 325.612 215.719 324.929 213.252 323.565H213.245ZM227.928 300.97C226.494 299.513 224.411 298.785 221.681 298.785C219.289 298.785 217.218 299.528 215.47 301.006C213.833 302.392 212.775 304.168 212.291 306.332C212.242 306.552 212.42 306.773 212.644 306.773H230.163C230.38 306.773 230.555 306.563 230.519 306.35C230.142 304.133 229.281 302.342 227.928 300.97Z" fill="white"/>
    <defs>
        <linearGradient id="paint0_linear_78_943" x1="0" y1="162.879" x2="250" y2="162.879" gradientUnits="userSpaceOnUse">
            <stop stop-color="white" stop-opacity="0.5"/>
            <stop offset="0.495" stop-color="white"/>
        </linearGradient>
        <linearGradient id="paint1_linear_78_943" x1="0" y1="162.888" x2="250" y2="162.888" gradientUnits="userSpaceOnUse">
            <stop offset="0.265" stop-color="white" stop-opacity="0.5"/>
            <stop offset="0.82" stop-color="white"/>
        </linearGradient>
        <linearGradient id="paint2_linear_78_943" x1="0.00165859" y1="-107.417" x2="250" y2="-107.417" gradientUnits="userSpaceOnUse">
            <stop stop-color="white" stop-opacity="0.5"/>
            <stop offset="1" stop-color="white"/>
        </linearGradient>
        <linearGradient id="paint3_linear_78_943" x1="0" y1="162.879" x2="250" y2="162.879" gradientUnits="userSpaceOnUse">
            <stop stop-color="white" stop-opacity="0.5"/>
            <stop offset="0.52" stop-color="white"/>
        </linearGradient>
    </defs>
</svg>
