<svg width="184" height="45" viewBox="0 0 184 45" fill="none" xmlns="http://www.w3.org/2000/svg">
    <rect width="184" height="45" rx="6" fill="#FEE500"/>
    <path d="M67.215 17.215H61.29V18.46H65.61C65.565 19.12 65.445 19.735 65.28 20.335L60.615 20.68L60.855 22.015L64.77 21.595C63.855 23.44 62.235 24.865 60.3 25.75L61.29 26.86C65.115 24.85 67.2 21.79 67.215 17.215ZM70.83 15.82H69.285V29.185H70.83V22.315H72.9V21.04H70.83V15.82ZM80.1935 17.215H74.2685V18.46H78.5885C78.5435 19.12 78.4235 19.735 78.2585 20.335L73.5935 20.68L73.8335 22.015L77.7485 21.595C76.8335 23.44 75.2135 24.865 73.2785 25.75L74.2685 26.86C78.0935 24.85 80.1785 21.79 80.1935 17.215ZM83.8085 15.82H82.2635V29.185H83.8085V22.315H85.8785V21.04H83.8085V15.82ZM98.482 27.475V26.245H93.187V23.98C95.692 23.74 97.297 22.33 97.297 20.32C97.297 18.115 95.377 16.645 92.437 16.645C89.542 16.645 87.607 18.115 87.607 20.32C87.607 22.315 89.182 23.725 91.657 23.965V26.245H86.407V27.475H98.482ZM95.752 20.335C95.752 21.745 94.432 22.705 92.437 22.705C90.472 22.705 89.152 21.745 89.152 20.335C89.152 18.91 90.472 17.905 92.437 17.905C94.447 17.905 95.752 18.91 95.752 20.335ZM114.231 24.025V22.78H106.416V20.95H113.841V16.75H104.826V17.98H112.311V19.705H104.871V24.025H108.576V26.26H103.326V27.49H115.401V26.26H110.106V24.025H114.231ZM128.379 27.235V25.99H116.304V27.235H128.379ZM126.804 17.26H117.699V18.475H125.259C125.259 20.635 125.034 23.53 124.704 24.865L126.219 25.06C126.579 23.305 126.804 20.8 126.804 17.26ZM140.278 25.51V15.82H138.748V25.51H140.278ZM140.593 28.795V27.565H132.973V24.595H131.443V28.795H140.593ZM136.528 20.08C136.528 18.175 135.148 16.81 133.108 16.81C131.053 16.81 129.658 18.19 129.658 20.095C129.658 21.985 131.068 23.35 133.108 23.35C135.148 23.35 136.528 21.985 136.528 20.08ZM134.998 20.08C134.998 21.175 134.278 22.045 133.108 22.045C131.968 22.045 131.203 21.175 131.203 20.08C131.203 18.94 131.968 18.085 133.108 18.085C134.278 18.085 134.998 18.91 134.998 20.08Z" fill="black" fill-opacity="0.85"/>
    <g clip-path="url(#clip0_1_149)">
        <path fill-rule="evenodd" clip-rule="evenodd" d="M23 13.9761C18.0292 13.9761 14 17.1055 14 20.9651C14 23.3655 15.5584 25.4815 17.9315 26.7401L16.933 30.4069C16.8448 30.7309 17.2134 30.9892 17.4965 30.8014L21.8734 27.8974C22.2427 27.9333 22.6181 27.9542 23 27.9542C27.9705 27.9542 31.9999 24.8249 31.9999 20.9651C31.9999 17.1055 27.9705 13.9761 23 13.9761Z" fill="black"/>
    </g>
    <defs>
        <clipPath id="clip0_1_149">
            <rect width="18" height="18" fill="white" transform="translate(14 13.5)"/>
        </clipPath>
    </defs>
</svg>
