<svg width="411" height="890" viewBox="0 0 411 890" fill="none" xmlns="http://www.w3.org/2000/svg">
    <rect width="412" height="890" transform="translate(-1)" fill="#0ED2F7"/>
    <path d="M233.085 359C226.803 377.249 209.606 389.501 190.277 389.501H139C145.215 371.264 162.372 359 181.669 359H233.085Z" fill="url(#paint0_linear_78_1971)"/>
    <path d="M259.976 391.349L249.265 422.776H213.463C219.866 403.985 237.543 391.349 257.425 391.349H259.976Z" fill="url(#paint1_linear_78_1971)"/>
    <path d="M271 359L260.605 389.501H257.078C241.242 389.501 230.097 373.966 235.198 359H271Z" fill="url(#paint2_linear_78_1971)"/>
    <path d="M221.95 391.349L195.917 466.975C192.709 476.291 183.928 482.546 174.06 482.546H157.222L183.256 406.925C186.462 397.606 195.244 391.349 205.113 391.349H221.95Z" fill="url(#paint3_linear_78_1971)"/>
    <path d="M157.549 507.389C157.448 507.389 157.367 507.472 157.367 507.571V530.597C157.367 530.698 157.284 530.779 157.185 530.779H153.95C153.849 530.779 153.768 530.696 153.768 530.597V507.571C153.768 507.47 153.685 507.389 153.586 507.389H145.952C145.85 507.389 145.77 507.307 145.77 507.207V504.581C145.77 504.48 145.852 504.399 145.952 504.399H165.187C165.289 504.399 165.37 504.481 165.37 504.581V507.207C165.37 507.309 165.287 507.389 165.187 507.389H157.549Z" fill="white"/>
    <path d="M167.67 513.804H170.906C171.008 513.804 171.089 513.886 171.089 513.986V516.47C171.694 515.605 172.521 514.92 173.571 514.415C174.56 513.939 175.576 513.699 176.621 513.693C176.725 513.693 176.813 513.781 176.813 513.884V516.727C176.813 516.824 176.732 516.899 176.635 516.901C175.667 516.907 174.765 517.141 173.932 517.605C173.045 518.098 172.351 518.764 171.848 519.605C171.342 520.447 171.09 521.334 171.09 522.272V530.632C171.09 530.734 171.008 530.814 170.908 530.814H167.672C167.57 530.814 167.489 530.732 167.489 530.632V513.986C167.489 513.884 167.572 513.804 167.672 513.804H167.67Z" fill="white"/>
    <path d="M182.043 529.897C180.754 529.165 179.751 528.148 179.031 526.852C178.309 525.554 177.95 524.077 177.95 522.419C177.95 520.76 178.309 519.314 179.031 518.004C179.751 516.695 180.756 515.674 182.043 514.941C183.333 514.207 184.799 513.841 186.441 513.841C187.402 513.841 188.356 514.07 189.303 514.526C190.253 514.982 191.079 515.655 191.788 516.545V513.988C191.788 513.886 191.871 513.806 191.97 513.806H195.205C195.306 513.806 195.387 513.888 195.387 513.988V530.634C195.387 530.735 195.304 530.816 195.205 530.816H191.97C191.869 530.816 191.788 530.734 191.788 530.634V528.295C191.079 529.208 190.258 529.887 189.322 530.332C188.386 530.777 187.426 531 186.441 531C184.799 531 183.333 530.632 182.043 529.901V529.897ZM189.191 527.321C189.988 526.841 190.625 526.167 191.106 525.302C191.585 524.437 191.826 523.477 191.826 522.419C191.826 521.361 191.585 520.408 191.106 519.554C190.625 518.7 189.988 518.029 189.191 517.535C188.396 517.044 187.541 516.796 186.633 516.796C185.114 516.796 183.889 517.312 182.955 518.346C182.021 519.38 181.553 520.736 181.553 522.419C181.553 524.102 182.021 525.458 182.955 526.492C183.889 527.524 185.116 528.041 186.633 528.041C187.542 528.041 188.396 527.801 189.191 527.321Z" fill="white"/>
    <path d="M203.085 529.897C201.796 529.165 200.783 528.143 200.052 526.833C199.319 525.524 198.952 524.04 198.952 522.381C198.952 520.723 199.319 519.241 200.052 517.931C200.785 516.622 201.796 515.601 203.085 514.867C204.374 514.134 205.838 513.768 207.481 513.768C208.417 513.768 209.377 513.991 210.362 514.434C211.347 514.881 212.194 515.582 212.903 516.543V505.373C212.903 505.271 212.985 505.191 213.085 505.191H216.319C216.421 505.191 216.502 505.273 216.502 505.373V530.632C216.502 530.734 216.419 530.814 216.319 530.814H213.085C212.984 530.814 212.903 530.732 212.903 530.632V528.22C212.168 529.158 211.311 529.854 210.326 530.311C209.341 530.767 208.392 530.996 207.481 530.996C205.838 530.996 204.372 530.629 203.085 529.897ZM210.307 527.321C211.102 526.816 211.734 526.132 212.202 525.267C212.67 524.402 212.905 523.452 212.905 522.419C212.905 521.385 212.67 520.436 212.202 519.571C211.734 518.706 211.097 518.021 210.289 517.517C209.479 517.012 208.62 516.759 207.71 516.759C206.169 516.759 204.925 517.282 203.976 518.327C203.029 519.372 202.555 520.736 202.555 522.419C202.555 524.102 203.029 525.466 203.976 526.511C204.925 527.555 206.169 528.079 207.71 528.079C208.646 528.079 209.512 527.828 210.307 527.323V527.321Z" fill="white"/>
    <path d="M225.983 526.816C226.741 527.634 227.727 528.041 228.94 528.041C230.278 528.041 231.366 527.651 232.2 526.871C233.033 526.09 233.437 525.051 233.414 523.753V513.988C233.414 513.886 233.497 513.806 233.597 513.806H236.87C236.972 513.806 237.053 513.888 237.053 513.988V530.634C237.053 530.735 236.97 530.816 236.87 530.816H233.414V528.797C232.858 529.471 232.136 530.006 231.253 530.402C230.366 530.797 229.485 530.996 228.599 530.996C227.182 530.996 225.919 530.69 224.807 530.077C223.694 529.463 222.822 528.612 222.191 527.518C221.559 526.424 221.243 525.182 221.243 523.786V513.986C221.243 513.884 221.326 513.804 221.426 513.804H224.66C224.762 513.804 224.842 513.886 224.842 513.986V523.606C224.842 524.927 225.222 525.996 225.979 526.814L225.983 526.816Z" fill="white"/>
    <path d="M244.597 505.373V530.597C244.597 530.698 244.514 530.779 244.414 530.779H241.18C241.078 530.779 240.998 530.696 240.998 530.597V505.373C240.998 505.271 241.08 505.191 241.18 505.191H244.414C244.516 505.191 244.597 505.273 244.597 505.373Z" fill="white"/>
    <path d="M251.594 529.842C250.293 529.122 249.274 528.113 248.541 526.814C247.807 525.516 247.442 524.04 247.442 522.381C247.442 520.723 247.807 519.246 248.541 517.948C249.274 516.65 250.291 515.637 251.594 514.903C252.894 514.17 254.379 513.804 256.048 513.804C257.717 513.804 259.057 514.128 260.143 514.776C261.229 515.425 262.02 516.098 262.511 516.794C263.005 517.49 263.313 518.032 263.441 518.415C263.971 519.64 264.238 520.999 264.238 522.488C264.238 522.826 264.225 523.096 264.2 523.299C264.174 523.503 264.163 523.653 264.163 523.749H251.047C251.274 524.974 251.86 525.983 252.81 526.777C253.757 527.571 254.837 527.966 256.05 527.966C257.438 527.966 258.508 527.707 259.254 527.192C259.938 526.717 260.438 526.248 260.75 525.783C260.799 525.709 260.887 525.685 260.966 525.723L263.558 526.904C263.62 526.933 263.648 527.008 263.618 527.068C263.103 528.101 262.218 528.996 260.962 529.751C259.66 530.533 258.023 530.923 256.051 530.923C254.383 530.923 252.9 530.563 251.597 529.842H251.594ZM259.346 517.912C258.589 517.143 257.489 516.759 256.048 516.759C254.785 516.759 253.691 517.151 252.768 517.931C251.904 518.663 251.345 519.601 251.09 520.743C251.064 520.86 251.158 520.976 251.276 520.976H260.526C260.641 520.976 260.733 520.865 260.714 520.753C260.515 519.582 260.06 518.637 259.346 517.912Z" fill="white"/>
    <defs>
        <linearGradient id="paint0_linear_78_1971" x1="139" y1="445" x2="271" y2="445" gradientUnits="userSpaceOnUse">
            <stop stop-color="white" stop-opacity="0.5"/>
            <stop offset="0.495" stop-color="white"/>
        </linearGradient>
        <linearGradient id="paint1_linear_78_1971" x1="139" y1="445.005" x2="271" y2="445.005" gradientUnits="userSpaceOnUse">
            <stop offset="0.265" stop-color="white" stop-opacity="0.5"/>
            <stop offset="0.82" stop-color="white"/>
        </linearGradient>
        <linearGradient id="paint2_linear_78_1971" x1="139.001" y1="302.284" x2="271" y2="302.284" gradientUnits="userSpaceOnUse">
            <stop stop-color="white" stop-opacity="0.5"/>
            <stop offset="1" stop-color="white"/>
        </linearGradient>
        <linearGradient id="paint3_linear_78_1971" x1="139" y1="445" x2="271" y2="445" gradientUnits="userSpaceOnUse">
            <stop stop-color="white" stop-opacity="0.5"/>
            <stop offset="0.52" stop-color="white"/>
        </linearGradient>
    </defs>
</svg>
