<svg width="127" height="19" viewBox="0 0 127 19" fill="none" xmlns="http://www.w3.org/2000/svg">
    <path d="M53.215 4.21501H47.29V5.46001H51.61C51.565 6.12001 51.445 6.73501 51.28 7.33501L46.615 7.68001L46.855 9.01501L50.77 8.59501C49.855 10.44 48.235 11.865 46.3 12.75L47.29 13.86C51.115 11.85 53.2 8.79001 53.215 4.21501ZM56.83 2.82001H55.285V16.185H56.83V9.31501H58.9V8.04001H56.83V2.82001ZM66.1935 4.21501H60.2685V5.46001H64.5885C64.5435 6.12001 64.4235 6.73501 64.2585 7.33501L59.5935 7.68001L59.8335 9.01501L63.7485 8.59501C62.8335 10.44 61.2135 11.865 59.2785 12.75L60.2685 13.86C64.0935 11.85 66.1785 8.79001 66.1935 4.21501ZM69.8085 2.82001H68.2635V16.185H69.8085V9.31501H71.8785V8.04001H69.8085V2.82001ZM84.482 14.475V13.245H79.187V10.98C81.692 10.74 83.297 9.33001 83.297 7.32001C83.297 5.11501 81.377 3.64501 78.437 3.64501C75.542 3.64501 73.607 5.11501 73.607 7.32001C73.607 9.31501 75.182 10.725 77.657 10.965V13.245H72.407V14.475H84.482ZM81.752 7.33501C81.752 8.74501 80.432 9.70501 78.437 9.70501C76.472 9.70501 75.152 8.74501 75.152 7.33501C75.152 5.91001 76.472 4.90501 78.437 4.90501C80.447 4.90501 81.752 5.91001 81.752 7.33501ZM100.231 11.025V9.78001H92.416V7.95001H99.841V3.75001H90.826V4.98001H98.311V6.70501H90.871V11.025H94.576V13.26H89.326V14.49H101.401V13.26H96.106V11.025H100.231ZM114.379 14.235V12.99H102.304V14.235H114.379ZM112.804 4.26001H103.699V5.47501H111.259C111.259 7.63501 111.034 10.53 110.704 11.865L112.219 12.06C112.579 10.305 112.804 7.80001 112.804 4.26001ZM126.278 12.51V2.82001H124.748V12.51H126.278ZM126.593 15.795V14.565H118.973V11.595H117.443V15.795H126.593ZM122.528 7.08001C122.528 5.17501 121.148 3.81001 119.108 3.81001C117.053 3.81001 115.658 5.19001 115.658 7.09501C115.658 8.98501 117.068 10.35 119.108 10.35C121.148 10.35 122.528 8.98501 122.528 7.08001ZM120.998 7.08001C120.998 8.17501 120.278 9.04501 119.108 9.04501C117.968 9.04501 117.203 8.17501 117.203 7.08001C117.203 5.94001 117.968 5.08501 119.108 5.08501C120.278 5.08501 120.998 5.91001 120.998 7.08001Z" fill="black" fill-opacity="0.85"/>
    <mask id="mask0_0_1" style="mask-type:luminance" maskUnits="userSpaceOnUse" x="0" y="0" width="18" height="19">
        <path d="M18 0.5H0V18.5H18V0.5Z" fill="white"/>
    </mask>
    <g mask="url(#mask0_0_1)">
        <path fill-rule="evenodd" clip-rule="evenodd" d="M9 0.976105C4.0292 0.976105 0 4.1055 0 7.9651C0 10.3655 1.5584 12.4815 3.9315 13.7401L2.933 17.4069C2.8448 17.7309 3.2134 17.9892 3.4965 17.8014L7.8734 14.8974C8.2427 14.9333 8.6181 14.9542 9 14.9542C13.9705 14.9542 17.9999 11.8249 17.9999 7.9651C17.9999 4.1055 13.9705 0.976105 9 0.976105Z" fill="black"/>
    </g>
</svg>
