<svg width="16" height="16" viewBox="0 0 16 16" fill="none" xmlns="http://www.w3.org/2000/svg">
    <path d="M3.75731 7.47187L7.99998 11.7145L12.2426 7.47187C12.6177 7.09677 12.8285 6.58801 12.8285 6.05754C12.8285 5.52706 12.6177 5.01831 12.2426 4.6432C12.0569 4.45747 11.8364 4.31014 11.5937 4.20962C11.3511 4.1091 11.091 4.05737 10.8283 4.05737C10.2978 4.05737 9.78908 4.2681 9.41398 4.6432L7.99998 6.0572L6.58598 4.64387C6.20992 4.2738 5.70286 4.06732 5.17525 4.0694C4.64764 4.07149 4.14223 4.28197 3.76911 4.65501C3.39599 5.02804 3.18539 5.5334 3.18318 6.06101C3.18097 6.58862 3.38733 7.09572 3.75731 7.47187ZM7.52864 3.69987L7.99998 4.1712L8.47131 3.69987C8.78034 3.38812 9.14791 3.14047 9.55291 2.97116C9.95791 2.80184 10.3924 2.71418 10.8313 2.71322C11.2703 2.71226 11.7051 2.79801 12.1109 2.96555C12.5166 3.1331 12.8853 3.37913 13.1957 3.68952C13.5061 3.99992 13.7521 4.36857 13.9196 4.77431C14.0872 5.18005 14.1729 5.61488 14.172 6.05385C14.171 6.49281 14.0833 6.92727 13.914 7.33227C13.7447 7.73727 13.4971 8.10484 13.1853 8.41387L8.47198 13.1279C8.41006 13.1899 8.33654 13.239 8.2556 13.2726C8.17467 13.3061 8.08792 13.3234 8.00031 13.3234C7.9127 13.3234 7.82595 13.3061 7.74502 13.2726C7.66408 13.239 7.59056 13.1899 7.52864 13.1279L2.81464 8.41454C2.49865 8.1065 2.24697 7.73878 2.0742 7.33271C1.90142 6.92664 1.811 6.49031 1.80817 6.04903C1.80535 5.60774 1.89017 5.17029 2.05772 4.76204C2.22528 4.35379 2.47223 3.98288 2.78425 3.67081C3.09627 3.35875 3.46715 3.11175 3.87537 2.94413C4.2836 2.77652 4.72104 2.69164 5.16232 2.6944C5.60361 2.69717 6.03995 2.78753 6.44605 2.96024C6.85214 3.13296 7.21989 3.38459 7.52798 3.70054L7.52864 3.69987Z" fill="#0ED2F7"/>
</svg>