<svg width="16" height="16" viewBox="0 0 16 16" fill="none" xmlns="http://www.w3.org/2000/svg">
    <path d="M7.52864 3.69987L7.99998 4.17187L8.47131 3.70054C8.78034 3.38878 9.14791 3.14114 9.55291 2.97182C9.95791 2.8025 10.3924 2.71485 10.8313 2.71389C11.2703 2.71293 11.7051 2.79868 12.1109 2.96622C12.5166 3.13376 12.8853 3.37979 13.1957 3.69019C13.5061 4.00059 13.7521 4.36924 13.9196 4.77497C14.0872 5.18071 14.1729 5.61555 14.172 6.05451C14.171 6.49348 14.0833 6.92793 13.914 7.33293C13.7447 7.73793 13.4971 8.1055 13.1853 8.41454L8.47198 13.1285C8.41006 13.1905 8.33654 13.2397 8.2556 13.2732C8.17467 13.3068 8.08792 13.3241 8.00031 13.3241C7.9127 13.3241 7.82595 13.3068 7.74502 13.2732C7.66408 13.2397 7.59056 13.1905 7.52864 13.1285L2.81464 8.41454C2.49865 8.1065 2.24697 7.73878 2.0742 7.33271C1.90142 6.92664 1.811 6.49031 1.80817 6.04903C1.80535 5.60774 1.89017 5.17029 2.05772 4.76204C2.22528 4.35379 2.47223 3.98288 2.78425 3.67081C3.09627 3.35875 3.46715 3.11175 3.87537 2.94413C4.2836 2.77652 4.72104 2.69164 5.16232 2.6944C5.60361 2.69717 6.03995 2.78753 6.44605 2.96024C6.85214 3.13296 7.21989 3.38459 7.52798 3.70054L7.52864 3.69987Z" fill="#0ED2F7"/>
</svg>