<svg width="37" height="37" viewBox="0 0 37 37" fill="none" xmlns="http://www.w3.org/2000/svg">
    <circle cx="18.5" cy="18.5" r="18.25" fill="white" stroke="#0ED2F7" stroke-width="0.5"/>
    <path d="M29.2791 20.4941L29.93 17.2399L21.625 13.0874V9.56094C21.626 8.80606 21.4605 8.06024 21.1403 7.37662C20.8201 6.693 20.3531 6.0884 19.7726 5.60587C19.4154 5.3081 18.965 5.14502 18.5 5.14502C18.0349 5.14502 17.5846 5.3081 17.2274 5.60587C16.6468 6.0884 16.1799 6.693 15.8597 7.37662C15.5395 8.06024 15.374 8.80606 15.375 9.56094V13.0874L7.07001 17.2399L7.72084 20.4941L15.3961 19.4931L15.7738 23.4591L12.25 24.9692V28.2187H24.75V24.9692L21.2262 23.459L21.6039 19.493L29.2791 20.4941ZM23.1875 25.9995V26.6562H13.8125V25.9995L17.4374 24.4459L16.9375 19.1972V17.7162L8.96664 18.7558L8.83622 18.1038L16.9375 14.0531V9.56094C16.9368 9.0352 17.0521 8.51577 17.2751 8.03967C17.4981 7.56356 17.8234 7.14247 18.2277 6.8064C18.3041 6.74268 18.4005 6.70779 18.5 6.70779C18.5995 6.70779 18.6959 6.74268 18.7723 6.8064C19.1766 7.14247 19.5018 7.56356 19.7248 8.03967C19.9479 8.51577 20.0631 9.0352 20.0625 9.56094V14.0531L28.1638 18.1038L28.0333 18.7558L20.0625 17.7162V19.1972L19.5626 24.4459L23.1875 25.9995Z" fill="#0ED2F7"/>
</svg>