<svg width="37" height="37" viewBox="0 0 37 37" fill="none" xmlns="http://www.w3.org/2000/svg">
    <circle cx="18.5" cy="18.5" r="18.25" fill="white" stroke="#0ED2F7" stroke-width="0.5"/>
    <path d="M15.3506 24.3594H20.0869C21.5303 24.3577 22.9142 23.7836 23.9348 22.763C24.9555 21.7423 25.5296 20.3585 25.5312 18.915V18.1094H26.7031C27.6355 18.1094 28.5297 17.739 29.189 17.0797C29.8484 16.4204 30.2188 15.5262 30.2188 14.5938C30.2188 13.6613 29.8484 12.7671 29.189 12.1078C28.5297 11.4485 27.6355 11.0781 26.7031 11.0781H9.90625V18.915C9.90789 20.3585 10.482 21.7423 11.5027 22.763C12.5233 23.7836 13.9072 24.3577 15.3506 24.3594ZM25.5312 12.6406H26.7031C27.2211 12.6406 27.7179 12.8464 28.0842 13.2127C28.4505 13.579 28.6562 14.0757 28.6562 14.5938C28.6562 15.1118 28.4505 15.6085 28.0842 15.9748C27.7179 16.3411 27.2211 16.5469 26.7031 16.5469H25.5312V12.6406ZM11.4688 12.6406H23.9688V18.915C23.9676 19.9442 23.5582 20.9309 22.8305 21.6586C22.1028 22.3864 21.1161 22.7957 20.0869 22.7969H15.3506C14.3214 22.7957 13.3347 22.3864 12.607 21.6586C11.8793 20.9309 11.4699 19.9442 11.4688 18.915V12.6406ZM6.78125 26.3125H30.2188V27.875H6.78125V26.3125Z" fill="#0ED2F7"/>
</svg>