<svg width="37" height="37" viewBox="0 0 37 37" fill="none" xmlns="http://www.w3.org/2000/svg">
    <g clip-path="url(#clip0_181_1413)">
        <path d="M16.2386 20.8906L22.0516 23.7922C22.2716 23.902 22.5206 23.9398 22.7633 23.9003C23.006 23.8608 23.2301 23.7459 23.4039 23.5719C23.5777 23.398 23.6924 23.1738 23.7317 22.9311C23.771 22.6883 23.733 22.4394 23.623 22.2195L20.7177 16.4114L14.903 13.4991C14.683 13.3889 14.434 13.3508 14.1911 13.39C13.9483 13.4293 13.7239 13.544 13.5499 13.7179C13.3759 13.8918 13.261 14.116 13.2215 14.3588C13.182 14.6017 13.22 14.8508 13.33 15.0708L16.2386 20.8906ZM19.553 17.5756L21.7018 21.8713L17.4031 19.7255L15.2519 15.4213L19.553 17.5756Z" fill="#ABB0BC"/>
        <path d="M18.5 30.2188C24.9721 30.2188 30.2188 24.9721 30.2188 18.5C30.2188 12.0279 24.9721 6.78125 18.5 6.78125C12.0279 6.78125 6.78125 12.0279 6.78125 18.5C6.78125 24.9721 12.0279 30.2188 18.5 30.2188ZM8.36099 17.9141C8.64985 12.8368 12.6676 8.75762 17.7188 8.37334V11.6152H19.2812V8.37334C24.3324 8.75762 28.3501 12.8368 28.639 17.9141H25.5298V19.4766H28.6093C28.1423 24.371 24.2021 28.2523 19.2812 28.6267V25.6777H17.7188V28.6267C12.7979 28.2523 8.85771 24.371 8.39067 19.4766H11.4673V17.9141H8.36099Z" fill="#ABB0BC"/>
    </g>
    <defs>
        <clipPath id="clip0_181_1413">
            <rect width="25" height="25" fill="white" transform="translate(6 6)"/>
        </clipPath>
    </defs>
</svg>