<svg width="37" height="37" viewBox="0 0 37 37" fill="none" xmlns="http://www.w3.org/2000/svg">
    <circle cx="18.5" cy="18.5" r="18.25" fill="white" stroke="#0ED2F7" stroke-width="0.5"/>
    <path d="M24.9967 12.1672C23.7051 9.97877 21.8714 8.16005 19.6725 6.88643L19.2813 6.66016L18.89 6.88643C16.6537 8.17704 14.7967 10.0339 13.5059 12.2702C12.2151 14.5064 11.5361 17.0432 11.5371 19.6253C11.5371 19.7935 11.54 19.9644 11.5458 20.1331C11.6235 22.421 12.4984 24.3461 14.076 25.7004C15.2833 26.7368 16.8318 27.3694 18.5002 27.5204V30.219H20.0627V17.7189H18.5V25.9479C15.8602 25.642 13.2328 23.7772 13.1072 20.08C13.1021 19.9289 13.0994 19.7759 13.0994 19.6253C13.1041 17.3958 13.6735 15.2038 14.7545 13.2539C15.8355 11.304 17.3929 9.65967 19.2813 8.47446C21.1696 9.65969 22.7269 11.304 23.8079 13.2539C24.8889 15.2038 25.4582 17.3958 25.4629 19.6253C25.4629 19.7759 25.4603 19.9289 25.4551 20.08C25.3547 23.0377 23.653 24.8226 21.6248 25.575V27.2286C22.6773 26.9303 23.6532 26.4091 24.4865 25.7003C26.0641 24.3461 26.939 22.4209 27.0168 20.1331C27.0225 19.9643 27.0254 19.7935 27.0254 19.6252C27.0268 17.0027 26.3263 14.4276 24.9967 12.1672Z" fill="#0ED2F7"/>
</svg>