<svg width="21" height="21" viewBox="0 0 21 21" fill="none" xmlns="http://www.w3.org/2000/svg">
    <rect x="0.5" y="20.5" width="20" height="20" rx="10" transform="rotate(-90 0.5 20.5)" stroke="#0ED2F7"/>
    <path d="M12.1055 10.5L8.22032 7.14771C8.07735 7.01998 7.99824 6.84891 8.00003 6.67135C8.00182 6.49378 8.08436 6.32392 8.22989 6.19836C8.37541 6.07279 8.57227 6.00157 8.77806 6.00003C8.98385 5.99848 9.18211 6.06674 9.33014 6.19011L13.7702 10.0212C13.9173 10.1482 14 10.3204 14 10.5C14 10.6796 13.9173 10.8518 13.7702 10.9788L9.33014 14.8099C9.18211 14.9333 8.98385 15.0015 8.77806 15C8.57227 14.9984 8.37541 14.9272 8.22989 14.8016C8.08436 14.6761 8.00182 14.5062 8.00003 14.3287C7.99824 14.1511 8.07735 13.98 8.22032 13.8523L12.1055 10.5Z" fill="#0ED2F7"/>
</svg>