<svg width="20" height="14" viewBox="0 0 20 14" fill="none" xmlns="http://www.w3.org/2000/svg">
    <path d="M10.0592 8.87608L14.1842 5.57608C14.2611 5.51241 14.353 5.46162 14.4547 5.42668C14.5564 5.39174 14.6657 5.37335 14.7764 5.37258C14.887 5.37181 14.9968 5.38868 15.0992 5.4222C15.2016 5.45572 15.2946 5.50523 15.3729 5.56782C15.4511 5.63042 15.513 5.70485 15.5549 5.78678C15.5968 5.86871 15.6179 5.9565 15.6169 6.04502C15.616 6.13354 15.593 6.22102 15.5493 6.30235C15.5056 6.38369 15.4421 6.45725 15.3625 6.51875L10.6484 10.2901C10.4921 10.4151 10.2802 10.4853 10.0592 10.4853C9.83824 10.4853 9.62631 10.4151 9.47004 10.2901L4.75587 6.51875C4.67628 6.45725 4.61279 6.38369 4.56912 6.30235C4.52545 6.22102 4.50246 6.13354 4.5015 6.04502C4.50053 5.9565 4.52162 5.86871 4.56352 5.78678C4.60542 5.70485 4.6673 5.63042 4.74554 5.56782C4.82379 5.50523 4.91683 5.45572 5.01924 5.4222C5.12166 5.38868 5.23139 5.37181 5.34204 5.37258C5.45269 5.37335 5.56204 5.39174 5.66371 5.42668C5.76538 5.46162 5.85733 5.51241 5.93421 5.57608L10.0592 8.87608Z" fill="#ABB0BC"/>
</svg>