<svg width="44" height="44" viewBox="0 0 44 44" fill="none" xmlns="http://www.w3.org/2000/svg">
    <path d="M24.3321 21.0979V12.1617C24.3321 11.6877 24.1438 11.2332 23.8086 10.898C23.4734 10.5628 23.0188 10.3745 22.5448 10.3745C22.0708 10.3745 21.6162 10.5628 21.2811 10.898C20.9459 11.2332 20.7576 11.6877 20.7576 12.1617V21.0979H11.8214C11.3474 21.0979 10.8928 21.2862 10.5576 21.6214C10.2225 21.9566 10.0342 22.4111 10.0342 22.8851C10.0342 23.3592 10.2225 23.8137 10.5576 24.1489C10.8928 24.4841 11.3474 24.6724 11.8214 24.6724H20.7576V33.6086C20.7576 34.0826 20.9459 34.5371 21.2811 34.8723C21.6162 35.2075 22.0708 35.3958 22.5448 35.3958C23.0188 35.3958 23.4734 35.2075 23.8086 34.8723C24.1438 34.5371 24.3321 34.0826 24.3321 33.6086V24.6724H33.2682C33.7422 24.6724 34.1968 24.4841 34.532 24.1489C34.8672 23.8137 35.0555 23.3592 35.0555 22.8851C35.0555 22.4111 34.8672 21.9566 34.532 21.6214C34.1968 21.2862 33.7422 21.0979 33.2682 21.0979H24.3321Z" fill="white"/>
</svg>