<svg width="28" height="29" viewBox="0 0 28 29" fill="none" xmlns="http://www.w3.org/2000/svg">
    <path d="M14 26.2425C8.55553 19.1375 5.83331 14.082 5.83331 11.0758C5.83331 8.90991 6.69373 6.83269 8.22527 5.30114C9.75682 3.76959 11.834 2.90918 14 2.90918C16.1659 2.90918 18.2431 3.76959 19.7747 5.30114C21.3062 6.83269 22.1666 8.90991 22.1666 11.0758C22.1666 14.082 19.4444 19.1375 14 26.2425ZM14 15.7425C15.2377 15.7425 16.4246 15.2508 17.2998 14.3757C18.175 13.5005 18.6666 12.3135 18.6666 11.0758C18.6666 9.83817 18.175 8.65119 17.2998 7.77602C16.4246 6.90085 15.2377 6.40918 14 6.40918C12.7623 6.40918 11.5753 6.90085 10.7001 7.77602C9.82498 8.65119 9.33331 9.83817 9.33331 11.0758C9.33331 12.3135 9.82498 13.5005 10.7001 14.3757C11.5753 15.2508 12.7623 15.7425 14 15.7425Z" fill="#ABB0BC"/>
</svg>