<svg width="16" height="17" viewBox="0 0 16 17" fill="none" xmlns="http://www.w3.org/2000/svg">
<path d="M8 16.5C3.5816 16.5 0 12.9184 0 8.5C0 4.0816 3.5816 0.5 8 0.5C12.4184 0.5 16 4.0816 16 8.5C16 12.9184 12.4184 16.5 8 16.5ZM4 7.7C3.78783 7.7 3.58434 7.78429 3.43431 7.93431C3.28429 8.08434 3.2 8.28783 3.2 8.5C3.2 8.71217 3.28429 8.91566 3.43431 9.06569C3.58434 9.21571 3.78783 9.3 4 9.3H12C12.2122 9.3 12.4157 9.21571 12.5657 9.06569C12.7157 8.91566 12.8 8.71217 12.8 8.5C12.8 8.28783 12.7157 8.08434 12.5657 7.93431C12.4157 7.78429 12.2122 7.7 12 7.7H4Z" fill="#0ED2F7"/>
</svg>