<svg width="12" height="12" viewBox="0 0 12 12" fill="none" xmlns="http://www.w3.org/2000/svg">
    <path d="M5.06663 7.3945L3.40263 5.7305C3.3404 5.66828 3.26396 5.63495 3.17329 5.6305C3.08263 5.62606 3.00174 5.65939 2.93063 5.7305C2.85951 5.80161 2.82396 5.88028 2.82396 5.9665C2.82396 6.05273 2.85951 6.13139 2.93063 6.2025L4.68996 7.96117C4.79751 8.06917 4.92307 8.12317 5.06663 8.12317C5.21018 8.12317 5.33596 8.06917 5.44396 7.96117L9.09463 4.3105C9.15685 4.24784 9.19018 4.17117 9.19463 4.0805C9.19907 3.98984 9.16574 3.90917 9.09463 3.8385C9.02352 3.76784 8.94507 3.73228 8.85929 3.73184C8.77351 3.73139 8.69463 3.76695 8.62263 3.8385L5.06663 7.3945ZM1.74396 11.3332C1.43685 11.3332 1.18063 11.2305 0.975293 11.0252C0.769959 10.8198 0.66707 10.5634 0.666626 10.2558V1.74384C0.666626 1.43673 0.769515 1.1805 0.975293 0.97517C1.18107 0.769837 1.43729 0.666948 1.74396 0.666504H10.2566C10.5633 0.666504 10.8195 0.769393 11.0253 0.97517C11.2311 1.18095 11.3337 1.43717 11.3333 1.74384V10.2565C11.3333 10.5632 11.2306 10.8194 11.0253 11.0252C10.82 11.2309 10.5635 11.3336 10.256 11.3332H1.74396Z" fill="#0ED2F7"/>
</svg>