<svg width="12" height="12" viewBox="0 0 12 12" fill="none" xmlns="http://www.w3.org/2000/svg">
    <path d="M1.74396 11.3332C1.43685 11.3332 1.18063 11.2305 0.975293 11.0252C0.769959 10.8198 0.66707 10.5634 0.666626 10.2558V1.74384C0.666626 1.43673 0.769515 1.1805 0.975293 0.97517C1.18107 0.769837 1.43729 0.666948 1.74396 0.666504H10.2566C10.5633 0.666504 10.8195 0.769393 11.0253 0.97517C11.2311 1.18095 11.3337 1.43717 11.3333 1.74384V10.2565C11.3333 10.5632 11.2306 10.8194 11.0253 11.0252C10.82 11.2309 10.5635 11.3336 10.256 11.3332H1.74396ZM1.74396 10.6665H10.2566C10.3588 10.6665 10.4528 10.6238 10.5386 10.5385C10.6244 10.4532 10.6671 10.3589 10.6666 10.2558V1.74384C10.6666 1.64117 10.624 1.54695 10.5386 1.46117C10.4533 1.37539 10.3591 1.33273 10.256 1.33317H1.74396C1.64129 1.33317 1.54707 1.37584 1.46129 1.46117C1.37551 1.5465 1.33285 1.64073 1.33329 1.74384V10.2565C1.33329 10.3587 1.37596 10.4527 1.46129 10.5385C1.54663 10.6243 1.64063 10.6669 1.74329 10.6665" fill="#0ED2F7"/>
</svg>