<svg width="40" height="40" viewBox="0 0 40 40" fill="none" xmlns="http://www.w3.org/2000/svg">
    <g clip-path="url(#clip0_73_325)">
        <path d="M31.0522 7.2814L31.052 7.28124C28.1208 4.35004 24.1453 2.70331 19.9999 2.70331C15.8546 2.70331 11.879 4.35004 8.94781 7.28124C6.01661 10.2124 4.36987 14.188 4.36987 18.3333C4.36987 22.4787 6.01661 26.4543 8.94781 29.3855L18.1145 38.5521L18.1146 38.5522C18.6147 39.0521 19.2928 39.333 19.9999 39.333C20.707 39.333 21.3852 39.0521 21.8852 38.5522L21.8854 38.5521L31.052 29.3855L31.0522 29.3853C33.9825 26.4537 35.6286 22.4783 35.6286 18.3333C35.6286 14.1883 33.9825 10.213 31.0522 7.2814ZM18.4999 18.3333C18.4999 17.9355 18.6579 17.554 18.9393 17.2727C19.2206 16.9914 19.6021 16.8333 19.9999 16.8333H20.0166C20.4144 16.8333 20.7959 16.9914 21.0772 17.2727C21.3585 17.554 21.5166 17.9355 21.5166 18.3333V18.35C21.5166 18.7478 21.3585 19.1294 21.0772 19.4107C20.7959 19.692 20.4144 19.85 20.0166 19.85H19.9999C19.6021 19.85 19.2206 19.692 18.9393 19.4107C18.6579 19.1294 18.4999 18.7478 18.4999 18.35V18.3333Z" fill="#0ED2F7" stroke="white" stroke-width="2"/>
    </g>
    <defs>
        <clipPath id="clip0_73_325">
            <rect width="40" height="40" fill="white"/>
        </clipPath>
    </defs>
</svg>
