<svg width="42" height="48" viewBox="0 0 42 48" fill="none" xmlns="http://www.w3.org/2000/svg">
    <g clip-path="url(#clip0_221_1629)" filter="url(#filter0_d_221_1629)">
        <path d="M32.0523 7.28122L32.0521 7.28106C29.1209 4.34986 25.1454 2.70312 21 2.70312C16.8547 2.70313 12.8791 4.34986 9.9479 7.28106C7.0167 10.2123 5.36996 14.1878 5.36996 18.3332C5.36996 22.4785 7.0167 26.4541 9.9479 29.3853L19.1146 38.5519L19.1147 38.552C19.6147 39.052 20.2929 39.3328 21 39.3328C21.7071 39.3328 22.3853 39.052 22.8853 38.552L22.8854 38.5519L32.0521 29.3853L32.0523 29.3851C34.9826 26.4535 36.6287 22.4782 36.6287 18.3332C36.6287 14.1882 34.9826 10.2128 32.0523 7.28122ZM19.9393 19.4105L19.2322 20.1176L19.9393 19.4105C19.658 19.1292 19.5 18.7477 19.5 18.3498V18.3332C19.5 17.9353 19.658 17.5538 19.9393 17.2725L19.2322 16.5654L19.9393 17.2725C20.2206 16.9912 20.6022 16.8332 21 16.8332H21.0167C21.4145 16.8332 21.796 16.9912 22.0773 17.2725C22.3586 17.5538 22.5167 17.9353 22.5167 18.3332V18.3498C22.5167 18.7477 22.3586 19.1292 22.0773 19.4105C21.796 19.6918 21.4145 19.8498 21.0167 19.8498H21C20.6022 19.8498 20.2206 19.6918 19.9393 19.4105Z" fill="#0ED2F7" stroke="white" stroke-width="2"/>
    </g>
    <defs>
        <filter id="filter0_d_221_1629" x="-3" y="0" width="48" height="48" filterUnits="userSpaceOnUse" color-interpolation-filters="sRGB">
            <feFlood flood-opacity="0" result="BackgroundImageFix"/>
            <feColorMatrix in="SourceAlpha" type="matrix" values="0 0 0 0 0 0 0 0 0 0 0 0 0 0 0 0 0 0 127 0" result="hardAlpha"/>
            <feOffset dy="4"/>
            <feGaussianBlur stdDeviation="2"/>
            <feComposite in2="hardAlpha" operator="out"/>
            <feColorMatrix type="matrix" values="0 0 0 0 0 0 0 0 0 0 0 0 0 0 0 0 0 0 0.25 0"/>
            <feBlend mode="normal" in2="BackgroundImageFix" result="effect1_dropShadow_221_1629"/>
            <feBlend mode="normal" in="SourceGraphic" in2="effect1_dropShadow_221_1629" result="shape"/>
        </filter>
        <clipPath id="clip0_221_1629">
            <rect width="40" height="40" fill="white" transform="translate(1)"/>
        </clipPath>
    </defs>
</svg>