<svg width="25" height="26" viewBox="0 0 25 26" fill="none" xmlns="http://www.w3.org/2000/svg">
    <path d="M8.88956 13.0728C9.01763 13.0182 9.15536 12.9898 9.29459 12.9893C9.43383 12.9888 9.57176 13.0162 9.70022 13.0699C9.82868 13.1236 9.94506 13.2025 10.0425 13.302C10.1399 13.4015 10.2164 13.5195 10.2675 13.649C10.3185 13.7786 10.3431 13.917 10.3397 14.0562C10.3363 14.1954 10.3051 14.3325 10.2478 14.4594C10.1905 14.5863 10.1084 14.7005 10.0062 14.7951C9.9041 14.8897 9.78402 14.9629 9.65311 15.0103C8.95688 15.2848 8.35934 15.7624 7.93819 16.381C7.51703 16.9997 7.29176 17.7307 7.29165 18.4791V20.2916C7.29165 20.5679 7.40139 20.8328 7.59674 21.0282C7.79209 21.2235 8.05705 21.3333 8.33331 21.3333H16.6666C16.9429 21.3333 17.2079 21.2235 17.4032 21.0282C17.5986 20.8328 17.7083 20.5679 17.7083 20.2916V18.576C17.7081 17.8036 17.4734 17.0495 17.0351 16.4135C16.5969 15.7776 15.9758 15.2897 15.2541 15.0145C15.1224 14.9688 15.0012 14.8971 14.8977 14.8037C14.7942 14.7102 14.7105 14.597 14.6516 14.4706C14.5926 14.3442 14.5597 14.2073 14.5547 14.068C14.5496 13.9286 14.5726 13.7897 14.6223 13.6594C14.672 13.5291 14.7473 13.4101 14.8438 13.3095C14.9403 13.2088 15.056 13.1286 15.1841 13.0735C15.3122 13.0184 15.45 12.9896 15.5895 12.9888C15.7289 12.9879 15.8671 13.0151 15.9958 13.0687C17.1119 13.4941 18.0725 14.2485 18.7503 15.2319C19.4281 16.2154 19.7913 17.3815 19.7916 18.576V20.2916C19.7916 21.1204 19.4624 21.9152 18.8764 22.5013C18.2903 23.0873 17.4954 23.4166 16.6666 23.4166H8.33331C7.50451 23.4166 6.70966 23.0873 6.1236 22.5013C5.53755 21.9152 5.20831 21.1204 5.20831 20.2916V18.4791C5.2086 17.3126 5.55984 16.1732 6.21637 15.209C6.8729 14.2449 7.80433 13.5005 8.88956 13.0728ZM12.5 2.58325C13.605 2.58325 14.6649 3.02224 15.4463 3.80364C16.2277 4.58504 16.6666 5.64485 16.6666 6.74992V8.83325C16.6666 9.93832 16.2277 10.9981 15.4463 11.7795C14.6649 12.5609 13.605 12.9999 12.5 12.9999C11.3949 12.9999 10.3351 12.5609 9.5537 11.7795C8.7723 10.9981 8.33331 9.93832 8.33331 8.83325V6.74992C8.33331 5.64485 8.7723 4.58504 9.5537 3.80364C10.3351 3.02224 11.3949 2.58325 12.5 2.58325ZM12.5 4.66659C11.9474 4.66659 11.4175 4.88608 11.0268 5.27678C10.6361 5.66748 10.4166 6.19738 10.4166 6.74992V8.83325C10.4166 9.38579 10.6361 9.91569 11.0268 10.3064C11.4175 10.6971 11.9474 10.9166 12.5 10.9166C13.0525 10.9166 13.5824 10.6971 13.9731 10.3064C14.3638 9.91569 14.5833 9.38579 14.5833 8.83325V6.74992C14.5833 6.19738 14.3638 5.66748 13.9731 5.27678C13.5824 4.88608 13.0525 4.66659 12.5 4.66659Z" fill="#FFF"/>
</svg>