<svg width="35" height="35" viewBox="0 0 35 35" fill="none" xmlns="http://www.w3.org/2000/svg">
    <path d="M15.6873 17.4998L22.906 24.7185C23.0453 24.8531 23.1564 25.014 23.2328 25.1919C23.3093 25.3698 23.3495 25.5612 23.3512 25.7548C23.3529 25.9485 23.316 26.1405 23.2426 26.3197C23.1693 26.4989 23.061 26.6618 22.9241 26.7987C22.7872 26.9356 22.6244 27.0439 22.4451 27.1172C22.2659 27.1906 22.0739 27.2274 21.8802 27.2258C21.6866 27.2241 21.4952 27.1839 21.3173 27.1074C21.1394 27.031 20.9785 26.9199 20.8439 26.7806L12.5942 18.5308C12.3208 18.2573 12.1672 17.8865 12.1672 17.4998C12.1672 17.1131 12.3208 16.7422 12.5942 16.4687L20.8439 8.21894C21.119 7.95329 21.4874 7.8063 21.8697 7.80963C22.2521 7.81295 22.6179 7.96632 22.8883 8.23671C23.1587 8.50709 23.312 8.87286 23.3153 9.25523C23.3187 9.6376 23.1717 10.006 22.906 10.281L15.6873 17.4998Z" fill="#ABB0BC"/>
</svg>