<svg width="12" height="13" viewBox="0 0 12 13" fill="none" xmlns="http://www.w3.org/2000/svg">
    <path d="M5.49996 9.78635V3.20935L4.23196 4.47685C4.13766 4.56793 4.01136 4.61832 3.88026 4.61718C3.74916 4.61604 3.62375 4.56346 3.53105 4.47076C3.43835 4.37805 3.38576 4.25265 3.38462 4.12155C3.38348 3.99045 3.43388 3.86415 3.52496 3.76985L5.64646 1.64835C5.74022 1.55461 5.86738 1.50195 5.99996 1.50195C6.13254 1.50195 6.25969 1.55461 6.35346 1.64835L8.47496 3.76985C8.52271 3.81597 8.56081 3.87114 8.58701 3.93214C8.61321 3.99315 8.62701 4.05876 8.62758 4.12515C8.62816 4.19154 8.61551 4.25738 8.59037 4.31882C8.56523 4.38027 8.5281 4.4361 8.48116 4.48304C8.43421 4.52999 8.37838 4.56712 8.31694 4.59226C8.25549 4.6174 8.18965 4.63005 8.12326 4.62947C8.05687 4.6289 7.99126 4.6151 7.93026 4.5889C7.86925 4.56269 7.81408 4.5246 7.76796 4.47685L6.49996 3.20985V9.78685L7.76796 8.51885C7.81408 8.47109 7.86925 8.433 7.93026 8.4068C7.99126 8.38059 8.05687 8.3668 8.12326 8.36622C8.18965 8.36565 8.25549 8.3783 8.31694 8.40344C8.37838 8.42858 8.43421 8.4657 8.48116 8.51265C8.5281 8.5596 8.56523 8.61542 8.59037 8.67687C8.61551 8.73832 8.62816 8.80416 8.62758 8.87055C8.62701 8.93694 8.61321 9.00255 8.58701 9.06355C8.56081 9.12455 8.52271 9.17972 8.47496 9.22585L6.35346 11.3473C6.30713 11.3939 6.25205 11.4309 6.19139 11.4561C6.13072 11.4814 6.06566 11.4944 5.99996 11.4944C5.93425 11.4944 5.8692 11.4814 5.80853 11.4561C5.74787 11.4309 5.69279 11.3939 5.64646 11.3473L3.52496 9.22535C3.4772 9.17922 3.43911 9.12405 3.41291 9.06305C3.3867 9.00205 3.37291 8.93644 3.37233 8.87005C3.37176 8.80366 3.38441 8.73782 3.40955 8.67637C3.43469 8.61492 3.47181 8.5591 3.51876 8.51215C3.56571 8.4652 3.62153 8.42808 3.68298 8.40294C3.74443 8.3778 3.81027 8.36515 3.87666 8.36572C3.94305 8.3663 4.00866 8.38009 4.06966 8.4063C4.13066 8.4325 4.18584 8.47059 4.23196 8.51835L5.49996 9.78635Z" fill="#0BB2D1"/>
</svg>