<svg width="26" height="25" viewBox="0 0 26 25" fill="none" xmlns="http://www.w3.org/2000/svg">
    <path d="M6.37083 11.6751L13 18.3043L19.6292 11.6751C20.2153 11.089 20.5445 10.2941 20.5445 9.46521C20.5445 8.63633 20.2153 7.84141 19.6292 7.25531C19.339 6.9651 18.9944 6.7349 18.6153 6.57784C18.2361 6.42078 17.8297 6.33994 17.4193 6.33994C16.5904 6.33994 15.7955 6.66921 15.2094 7.25531L13 9.46469L10.7906 7.25635C10.203 6.67811 9.41075 6.35549 8.58636 6.35875C7.76197 6.36201 6.97227 6.69089 6.38927 7.27375C5.80626 7.85662 5.4772 8.64624 5.47374 9.47063C5.47029 10.295 5.79273 11.0874 6.37083 11.6751ZM12.2635 5.78135L13 6.51781L13.7365 5.78135C14.2193 5.29424 14.7936 4.90729 15.4265 4.64274C16.0593 4.37818 16.7381 4.24122 17.424 4.23971C18.1099 4.23821 18.7893 4.3722 19.4233 4.63398C20.0572 4.89577 20.6332 5.28019 21.1182 5.76519C21.6032 6.25018 21.9877 6.8262 22.2494 7.46016C22.5112 8.09413 22.6452 8.77355 22.6437 9.45944C22.6422 10.1453 22.5053 10.8242 22.2407 11.457C21.9761 12.0898 21.5892 12.6641 21.1021 13.147L13.7375 20.5126C13.6408 20.6095 13.5259 20.6863 13.3994 20.7387C13.273 20.7911 13.1374 20.8181 13.0005 20.8181C12.8636 20.8181 12.7281 20.7911 12.6016 20.7387C12.4752 20.6863 12.3603 20.6095 12.2635 20.5126L4.89791 13.148C4.40417 12.6667 4.01092 12.0921 3.74096 11.4577C3.471 10.8232 3.32972 10.1414 3.3253 9.45191C3.32088 8.7624 3.45342 8.07888 3.71523 7.44099C3.97703 6.8031 4.36289 6.22355 4.85042 5.73595C5.33795 5.24835 5.91745 4.86241 6.5553 4.60052C7.19315 4.33862 7.87665 4.20599 8.56616 4.21031C9.25567 4.21463 9.93746 4.35582 10.572 4.62568C11.2065 4.89555 11.7811 5.28872 12.2625 5.78239L12.2635 5.78135Z" fill="#FFF"/>
</svg>