<svg width="22" height="23" viewBox="0 0 22 23" fill="none" xmlns="http://www.w3.org/2000/svg">
    <path d="M12.2962 11.5002L14.8895 8.90783C15.0615 8.73583 15.1581 8.50254 15.1581 8.25929C15.1581 8.01604 15.0615 7.78275 14.8895 7.61075C14.7175 7.43874 14.4842 7.34211 14.2409 7.34211C13.9977 7.34211 13.7644 7.43874 13.5924 7.61075L11 10.204L8.40771 7.61075C8.2357 7.43874 8.00242 7.34211 7.75917 7.34211C7.51592 7.34211 7.28263 7.43874 7.11062 7.61075C6.93862 7.78275 6.84199 8.01604 6.84199 8.25929C6.84199 8.50254 6.93862 8.73583 7.11062 8.90783L9.70387 11.5002L7.11062 14.0925C6.93862 14.2645 6.84199 14.4978 6.84199 14.741C6.84199 14.9843 6.93862 15.2176 7.11062 15.3896C7.28263 15.5616 7.51592 15.6582 7.75917 15.6582C8.00242 15.6582 8.2357 15.5616 8.40771 15.3896L11 12.7963L13.5924 15.3896C13.7644 15.5616 13.9977 15.6582 14.2409 15.6582C14.4842 15.6582 14.7175 15.5616 14.8895 15.3896C15.0615 15.2176 15.1581 14.9843 15.1581 14.741C15.1581 14.4978 15.0615 14.2645 14.8895 14.0925L12.2962 11.5002ZM11 20.6668C5.93729 20.6668 1.83337 16.5629 1.83337 11.5002C1.83337 6.43741 5.93729 2.3335 11 2.3335C16.0628 2.3335 20.1667 6.43741 20.1667 11.5002C20.1667 16.5629 16.0628 20.6668 11 20.6668Z" fill="#ABB0BC"/>
</svg>