<svg width="16" height="15" viewBox="0 0 16 15" fill="none" xmlns="http://www.w3.org/2000/svg">
    <path d="M8.21117 6.45491L5.11742 9.54866C4.99955 9.66251 4.84167 9.7255 4.6778 9.72408C4.51392 9.72265 4.35717 9.65692 4.24129 9.54104C4.12541 9.42516 4.05968 9.26841 4.05825 9.10453C4.05683 8.94066 4.11982 8.78278 4.23367 8.66491L7.7693 5.12928C7.8865 5.01211 8.04545 4.94629 8.21117 4.94629C8.3769 4.94629 8.53584 5.01211 8.65305 5.12928L12.1887 8.66491C12.3025 8.78278 12.3655 8.94066 12.3641 9.10453C12.3627 9.26841 12.2969 9.42516 12.1811 9.54104C12.0652 9.65692 11.9084 9.72265 11.7445 9.72408C11.5807 9.7255 11.4228 9.66251 11.3049 9.54866L8.21117 6.45491Z" fill="#D1D3D9"/>
</svg>