<svg width="26" height="26" viewBox="0 0 26 26" fill="none" xmlns="http://www.w3.org/2000/svg">
    <path d="M21.3334 21.3334V10.0126L13 5.01255L4.66671 10.0126V21.3334H8.83337V18.4688C8.83337 17.3637 9.27236 16.3039 10.0538 15.5225C10.8352 14.7411 11.895 14.3021 13 14.3021C14.1051 14.3021 15.1649 14.7411 15.9463 15.5225C16.7277 16.3039 17.1667 17.3637 17.1667 18.4688V21.3334H21.3334ZM15.0834 23.4167V18.4688C15.0834 17.9163 14.8639 17.3864 14.4732 16.9957C14.0825 16.605 13.5526 16.3855 13 16.3855C12.4475 16.3855 11.9176 16.605 11.5269 16.9957C11.1362 17.3864 10.9167 17.9163 10.9167 18.4688V23.4167H4.66671C4.11417 23.4167 3.58427 23.1972 3.19357 22.8065C2.80287 22.4158 2.58337 21.8859 2.58337 21.3334V10.0126C2.58337 9.65279 2.67653 9.29916 2.85378 8.98609C3.03104 8.67302 3.28634 8.41119 3.59483 8.22609L11.9282 3.22609C12.252 3.03182 12.6224 2.9292 13 2.9292C13.3776 2.9292 13.7481 3.03182 14.0719 3.22609L22.4052 8.22609C22.7137 8.41119 22.969 8.67302 23.1463 8.98609C23.3236 9.29916 23.4167 9.65279 23.4167 10.0126V21.3334C23.4167 21.8859 23.1972 22.4158 22.8065 22.8065C22.4158 23.1972 21.8859 23.4167 21.3334 23.4167H15.0834Z" fill="#FFF"/>
</svg>
