<svg width="17" height="25" viewBox="0 0 17 25" fill="none" xmlns="http://www.w3.org/2000/svg">
    <path d="M8.21105 6.45491L5.1173 9.54866C4.99942 9.66251 4.84155 9.7255 4.67767 9.72408C4.5138 9.72265 4.35704 9.65692 4.24116 9.54104C4.12528 9.42516 4.05955 9.26841 4.05813 9.10453C4.05671 8.94066 4.1197 8.78278 4.23355 8.66491L7.76918 5.12928C7.88638 5.01211 8.04532 4.94629 8.21105 4.94629C8.37678 4.94629 8.53572 5.01211 8.65293 5.12928L12.1886 8.66491C12.3024 8.78278 12.3654 8.94066 12.364 9.10453C12.3625 9.26841 12.2968 9.42516 12.1809 9.54104C12.0651 9.65692 11.9083 9.72265 11.7444 9.72408C11.5806 9.7255 11.4227 9.66251 11.3048 9.54866L8.21105 6.45491Z" fill="#D1D3D9"/>
    <path d="M8.21103 18.3217L11.3048 15.2279C11.3624 15.1682 11.4314 15.1206 11.5076 15.0879C11.5839 15.0551 11.6659 15.0379 11.7489 15.0371C11.8319 15.0364 11.9142 15.0522 11.991 15.0837C12.0678 15.1151 12.1376 15.1615 12.1963 15.2202C12.255 15.2789 12.3014 15.3486 12.3328 15.4254C12.3642 15.5023 12.38 15.5846 12.3793 15.6675C12.3786 15.7505 12.3613 15.8325 12.3286 15.9088C12.2958 15.985 12.2482 16.054 12.1885 16.1117L8.6529 19.6473C8.5357 19.7645 8.37676 19.8303 8.21103 19.8303C8.0453 19.8303 7.88636 19.7645 7.76915 19.6473L4.23353 16.1117C4.17384 16.054 4.12622 15.985 4.09347 15.9088C4.06071 15.8325 4.04347 15.7505 4.04275 15.6675C4.04203 15.5846 4.05784 15.5023 4.08927 15.4254C4.12069 15.3486 4.1671 15.2789 4.22578 15.2202C4.28447 15.1615 4.35425 15.1151 4.43106 15.0837C4.50787 15.0522 4.59017 15.0364 4.67316 15.0371C4.75614 15.0379 4.83815 15.0551 4.91441 15.0879C4.99066 15.1206 5.05963 15.1682 5.11728 15.2279L8.21103 18.3217Z" fill="#D1D3D9"/>
</svg>