<svg width="16" height="17" viewBox="0 0 16 17" fill="none" xmlns="http://www.w3.org/2000/svg">
    <path d="M8.8 9.3H12C12.2122 9.3 12.4157 9.21571 12.5657 9.06569C12.7157 8.91566 12.8 8.71217 12.8 8.5C12.8 8.28783 12.7157 8.08434 12.5657 7.93431C12.4157 7.78429 12.2122 7.7 12 7.7H8.8V4.5C8.8 4.28783 8.71571 4.08434 8.56569 3.93431C8.41566 3.78429 8.21217 3.7 8 3.7C7.78783 3.7 7.58434 3.78429 7.43431 3.93431C7.28429 4.08434 7.2 4.28783 7.2 4.5V7.7H4C3.78783 7.7 3.58434 7.78429 3.43431 7.93431C3.28429 8.08434 3.2 8.28783 3.2 8.5C3.2 8.71217 3.28429 8.91566 3.43431 9.06569C3.58434 9.21571 3.78783 9.3 4 9.3H7.2V12.5C7.2 12.7122 7.28429 12.9157 7.43431 13.0657C7.58434 13.2157 7.78783 13.3 8 13.3C8.21217 13.3 8.41566 13.2157 8.56569 13.0657C8.71571 12.9157 8.8 12.7122 8.8 12.5V9.3ZM8 16.5C3.5816 16.5 0 12.9184 0 8.5C0 4.0816 3.5816 0.5 8 0.5C12.4184 0.5 16 4.0816 16 8.5C16 12.9184 12.4184 16.5 8 16.5Z" fill="#0ED2F7"/>
</svg>