<svg width="20" height="20" viewBox="0 0 20 20" fill="none" xmlns="http://www.w3.org/2000/svg">
    <path d="M7.29169 8.5445e-07C8.6163 -0.000659413 9.9129 0.381355 11.0256 1.1001C12.1382 1.81885 13.0195 2.84372 13.5635 4.05146C14.1076 5.25921 14.2911 6.59839 14.0921 7.90797C13.893 9.21754 13.3199 10.4417 12.4417 11.4333L19.1667 19.0667L18.2334 19.9L11.525 12.3C10.6621 12.975 9.65045 13.434 8.57426 13.6388C7.49807 13.8436 6.38852 13.7883 5.33803 13.4775C4.28753 13.1667 3.32651 12.6094 2.53501 11.8519C1.7435 11.0945 1.14443 10.159 0.787699 9.12318C0.430963 8.08738 0.326888 6.98134 0.484143 5.89717C0.641397 4.81301 1.05543 3.78212 1.69175 2.89036C2.32807 1.9986 3.16826 1.2718 4.14234 0.770487C5.11642 0.269175 6.19618 0.00786925 7.29169 0.00833419V8.5445e-07ZM7.29169 12.5C8.78353 12.5 10.2143 11.9074 11.2692 10.8525C12.3241 9.79759 12.9167 8.36684 12.9167 6.875C12.9167 5.38316 12.3241 3.95242 11.2692 2.89753C10.2143 1.84263 8.78353 1.25 7.29169 1.25C5.79984 1.25 4.3691 1.84263 3.31421 2.89753C2.25932 3.95242 1.66669 5.38316 1.66669 6.875C1.66669 8.36684 2.25932 9.79759 3.31421 10.8525C4.3691 11.9074 5.79984 12.5 7.29169 12.5Z" fill="#D1D3D9"/>
</svg>