<svg width="37" height="37" viewBox="0 0 37 37" fill="none" xmlns="http://www.w3.org/2000/svg">
    <g clip-path="url(#clip0_181_1420)">
        <path d="M23.9688 14.2031H19.2812V11.0781H27.875C28.1857 11.0778 28.4836 10.9542 28.7033 10.7345C28.9229 10.5148 29.0465 10.2169 29.0469 9.90625V6.78125H27.4844V9.51562H18.8906C18.5799 9.51597 18.2821 9.63955 18.0624 9.85924C17.8427 10.0789 17.7191 10.3768 17.7188 10.6875V14.2031H13.0312C11.3742 14.205 9.7856 14.8641 8.6139 16.0358C7.44221 17.2075 6.78312 18.7961 6.78125 20.4531V25.3825C6.78258 26.5611 7.25139 27.6911 8.08482 28.5245C8.91826 29.358 10.0483 29.8268 11.2269 29.8281H11.3148C11.9667 29.829 12.6108 29.6861 13.2012 29.4096C13.7916 29.1332 14.3138 28.7299 14.7305 28.2285L17.3037 25.1406H19.6781L22.2497 28.4836C22.8158 29.2194 23.5981 29.7595 24.4867 30.0282C25.3753 30.2968 26.3258 30.2805 27.2047 29.9816C28.0836 29.6826 28.8469 29.116 29.3874 28.3613C29.928 27.6065 30.2187 26.7015 30.2188 25.7731V20.4531C30.2169 18.7961 29.5578 17.2075 28.3861 16.0358C27.2144 14.8641 25.6258 14.205 23.9688 14.2031ZM28.6562 25.7731C28.6562 26.3752 28.4677 26.9622 28.1171 27.4517C27.7665 27.9413 27.2715 28.3087 26.7015 28.5026C26.1314 28.6965 25.515 28.707 24.9386 28.5328C24.3623 28.3585 23.855 28.0082 23.4878 27.5309L20.4472 23.5781H16.5716L13.5299 27.2282C13.2596 27.5533 12.921 27.8148 12.5382 27.9941C12.1553 28.1734 11.7377 28.2661 11.3149 28.2656H11.2271C10.4626 28.2648 9.72974 27.9608 9.1892 27.4203C8.64866 26.8798 8.3446 26.1469 8.34375 25.3825V20.4531C8.34517 19.2104 8.83949 18.0189 9.71826 17.1401C10.597 16.2614 11.7885 15.767 13.0312 15.7656H23.9688C25.2115 15.767 26.403 16.2614 27.2817 17.1401C28.1605 18.0189 28.6548 19.2104 28.6562 20.4531V25.7731Z" fill="#ABB0BC"/>
        <path d="M23.5781 18.1094H25.1406V19.6719H23.5781V18.1094ZM23.5781 22.0156H25.1406V23.5781H23.5781V22.0156ZM21.625 20.0625H23.1875V21.625H21.625V20.0625ZM25.5312 20.0625H27.0938V21.625H25.5312V20.0625ZM13.4219 18.1094H11.8594V20.0625H9.90625V21.625H11.8594V23.5781H13.4219V21.625H15.375V20.0625H13.4219V18.1094Z" fill="#ABB0BC"/>
    </g>
    <defs>
        <clipPath id="clip0_181_1420">
            <rect width="25" height="25" fill="white" transform="translate(6 6)"/>
        </clipPath>
    </defs>
</svg>