<svg width="37" height="37" viewBox="0 0 37 37" fill="none" xmlns="http://www.w3.org/2000/svg">
    <circle cx="18.5" cy="18.5" r="18.25" fill="white" stroke="#0ED2F7" stroke-width="0.5"/>
    <path d="M9.38385 16.6773H7.65955C7.6359 16.6773 7.6187 16.6966 7.6187 16.7181V21.9275C7.6187 21.9512 7.59935 21.9684 7.57785 21.9684H6.84685C6.8232 21.9684 6.806 21.949 6.806 21.9275V16.7181C6.806 16.6944 6.78665 16.6773 6.76515 16.6773H5.04085C5.0172 16.6773 5 16.6579 5 16.6364V16.0409C5 16.0172 5.01935 16 5.04085 16H9.386C9.40965 16 9.42685 16.0194 9.42685 16.0409V16.6364C9.42685 16.66 9.4075 16.6773 9.386 16.6773H9.38385Z" fill="#0ED2F7" stroke="#364947" stroke-width="0.02" stroke-miterlimit="10"/>
    <path d="M9.94498 18.1286H10.676C10.6996 18.1286 10.7168 18.148 10.7168 18.1695V18.7328C10.8544 18.5371 11.0415 18.3823 11.278 18.2684C11.5016 18.1609 11.7316 18.1071 11.966 18.105C11.9896 18.105 12.009 18.1243 12.009 18.148V18.7908C12.009 18.8123 11.9918 18.8295 11.9681 18.8295C11.7488 18.8295 11.5467 18.8833 11.3575 18.9886C11.1576 19.1004 11.0006 19.2509 10.8867 19.4401C10.7727 19.6315 10.7147 19.8314 10.7147 20.0443V21.9363C10.7147 21.9599 10.6953 21.9771 10.6738 21.9771H9.94283C9.91918 21.9771 9.90198 21.9578 9.90198 21.9363V18.1695C9.90198 18.1458 9.92133 18.1286 9.94283 18.1286H9.94498Z" fill="#0ED2F7" stroke="#364947" stroke-width="0.02" stroke-miterlimit="10"/>
    <path d="M13.1915 21.7704C12.9013 21.6049 12.6734 21.3748 12.5121 21.0803C12.3487 20.7857 12.267 20.4525 12.267 20.0762C12.267 19.7 12.3487 19.3732 12.5121 19.0765C12.6755 18.7798 12.9013 18.5497 13.1915 18.382C13.4839 18.2165 13.815 18.1326 14.1848 18.1326C14.402 18.1326 14.617 18.1842 14.832 18.2874C15.047 18.3906 15.234 18.5433 15.3931 18.7432V18.1649C15.3931 18.1412 15.4125 18.124 15.434 18.124H16.165C16.1886 18.124 16.2058 18.1434 16.2058 18.1649V21.9317C16.2058 21.9553 16.1865 21.9725 16.165 21.9725H15.434C15.4103 21.9725 15.3931 21.9532 15.3931 21.9317V21.4028C15.2319 21.6092 15.047 21.764 14.8363 21.8629C14.6256 21.9639 14.4084 22.0134 14.1848 22.0134C13.8129 22.0134 13.4839 21.9295 13.1915 21.764V21.7704ZM14.8062 21.1878C14.9868 21.0781 15.1308 20.9276 15.2383 20.732C15.3458 20.5363 15.4017 20.3192 15.4017 20.0805C15.4017 19.8419 15.348 19.6247 15.2383 19.4334C15.1287 19.2399 14.9846 19.0872 14.8062 18.9776C14.6256 18.8658 14.4342 18.8099 14.2278 18.8099C13.886 18.8099 13.6086 18.926 13.3979 19.1603C13.1872 19.3947 13.0819 19.7021 13.0819 20.0827C13.0819 20.4632 13.1872 20.7707 13.3979 21.005C13.6086 21.2394 13.886 21.3555 14.2278 21.3555C14.4342 21.3555 14.6256 21.3017 14.8062 21.1921V21.1878Z" fill="#0ED2F7" stroke="#364947" stroke-width="0.02" stroke-miterlimit="10"/>
    <path d="M17.9451 21.7706C17.6527 21.605 17.4248 21.3728 17.2593 21.0783C17.0937 20.7816 17.0099 20.4462 17.0099 20.0699C17.0099 19.6937 17.0937 19.3583 17.2593 19.0616C17.4248 18.7649 17.6527 18.5348 17.9451 18.3671C18.2354 18.2016 18.5665 18.1177 18.9384 18.1177C19.1491 18.1177 19.3663 18.1672 19.5899 18.2682C19.8135 18.3693 20.0027 18.5284 20.1639 18.7455V16.2171C20.1639 16.1935 20.1833 16.1763 20.2048 16.1763H20.9358C20.9594 16.1763 20.9766 16.1956 20.9766 16.2171V21.934C20.9766 21.9576 20.9573 21.9748 20.9358 21.9748H20.2048C20.1811 21.9748 20.1639 21.9555 20.1639 21.934V21.3879C19.9984 21.6007 19.8049 21.7577 19.5813 21.8609C19.3577 21.9641 19.1448 22.0157 18.9384 22.0157C18.5665 22.0157 18.2375 21.9318 17.9451 21.7663V21.7706ZM19.577 21.1879C19.7576 21.074 19.8995 20.9192 20.0048 20.7235C20.1102 20.5279 20.1639 20.3129 20.1639 20.0785C20.1639 19.8442 20.1102 19.6292 20.0048 19.4335C19.8995 19.2379 19.7554 19.0831 19.5727 18.9691C19.3899 18.8552 19.1964 18.7971 18.99 18.7971C18.6417 18.7971 18.3601 18.9154 18.1472 19.1519C17.9344 19.3884 17.8269 19.6958 17.8269 20.0785C17.8269 20.4612 17.9344 20.7687 18.1472 21.0052C18.3622 21.2417 18.6417 21.3599 18.99 21.3599C19.2007 21.3599 19.3964 21.304 19.577 21.1879Z" fill="#0ED2F7" stroke="#364947" stroke-width="0.02" stroke-miterlimit="10"/>
    <path d="M23.118 21.0742C23.29 21.2591 23.5115 21.3516 23.7867 21.3516C24.0898 21.3516 24.3349 21.2634 24.5241 21.0871C24.7133 20.9108 24.8036 20.6743 24.7972 20.3819V18.1717C24.7972 18.1481 24.8165 18.1309 24.838 18.1309H25.5777C25.6013 18.1309 25.6185 18.1502 25.6185 18.1717V21.9385C25.6185 21.9622 25.5992 21.9794 25.5777 21.9794H24.7972V21.5236C24.6725 21.6762 24.5091 21.7966 24.3091 21.8869C24.1092 21.9772 23.9092 22.0224 23.7093 22.0224C23.3889 22.0224 23.1051 21.9536 22.8536 21.8138C22.602 21.6741 22.4042 21.4827 22.2623 21.2355C22.1204 20.9882 22.0495 20.7066 22.0495 20.3905V18.1717C22.0495 18.1481 22.0688 18.1309 22.0903 18.1309H22.8213C22.845 18.1309 22.8622 18.1502 22.8622 18.1717V20.3497C22.8622 20.6485 22.9482 20.8915 23.118 21.0764V21.0742Z" fill="#0ED2F7" stroke="#364947" stroke-width="0.02" stroke-miterlimit="10"/>
    <path d="M27.3213 16.2215V21.9298C27.3213 21.9534 27.302 21.9706 27.2805 21.9706H26.5495C26.5258 21.9706 26.5086 21.9513 26.5086 21.9298V16.2215C26.5086 16.1979 26.528 16.1807 26.5495 16.1807H27.2805C27.3041 16.1807 27.3213 16.2 27.3213 16.2215Z" fill="#0ED2F7" stroke="#364947" stroke-width="0.02" stroke-miterlimit="10"/>
    <path d="M28.9015 21.7575C28.607 21.5941 28.3769 21.3662 28.2114 21.0717C28.0458 20.7771 27.962 20.4439 27.962 20.0676C27.962 19.6914 28.0437 19.3581 28.2114 19.0636C28.3769 18.769 28.607 18.5411 28.9015 18.3734C29.1961 18.2079 29.5315 18.124 29.9077 18.124C30.284 18.124 30.5871 18.1971 30.8322 18.3433C31.0773 18.4895 31.2558 18.6422 31.3676 18.7991C31.4794 18.9561 31.5482 19.0786 31.5783 19.1668C31.6987 19.4441 31.7589 19.7516 31.7589 20.0891C31.7589 20.1644 31.7567 20.2267 31.7503 20.2719C31.7438 20.3192 31.7417 20.3514 31.7417 20.3729H28.779C28.8306 20.6503 28.9639 20.8782 29.1767 21.0588C29.3896 21.2372 29.6347 21.3275 29.9099 21.3275C30.2238 21.3275 30.4646 21.2695 30.6344 21.1512C30.7892 21.0437 30.901 20.9384 30.972 20.833C30.9827 20.8158 31.0021 20.8115 31.0214 20.8201L31.6062 21.0867C31.6213 21.0932 31.6256 21.1104 31.6191 21.1233C31.503 21.3576 31.3031 21.5597 31.0193 21.7296C30.7247 21.9059 30.3549 21.994 29.9099 21.994C29.5336 21.994 29.1982 21.9123 28.9037 21.7489L28.9015 21.7575ZM30.6538 19.0593C30.4818 18.8851 30.2345 18.7991 29.9099 18.7991C29.6239 18.7991 29.3767 18.8873 29.1703 19.0636C28.9746 19.2291 28.8478 19.442 28.7919 19.7C28.7854 19.7258 28.8069 19.7537 28.8349 19.7537H30.9247C30.9505 19.7537 30.972 19.7279 30.9677 19.7043C30.9225 19.4398 30.8193 19.2248 30.6581 19.0614L30.6538 19.0593Z" fill="#0ED2F7" stroke="#364947" stroke-width="0.02" stroke-miterlimit="10"/>
</svg>